<svg width="20" height="19" viewBox="0 0 20 19" fill="none" xmlns="http://www.w3.org/2000/svg">
<path d="M14.2623 0.731484C12.3212 0.615857 10.6707 1.83318 9.74374 1.83318C8.81623 1.83318 7.3967 0.789752 5.86136 0.817875C3.86301 0.847226 2.00878 1.9771 0.994704 3.77414C-1.09108 7.36911 0.444268 12.7017 2.47258 15.6296C3.45757 17.0781 4.64466 18.673 6.20882 18.6157C7.6867 18.5578 8.26596 17.6588 10.0624 17.6588C11.8575 17.6588 12.3793 18.6157 13.9437 18.5868C15.566 18.5578 16.5803 17.1375 17.5653 15.6876C18.6952 14.0363 19.1578 12.4419 19.1869 12.3544C19.1578 12.3254 16.0586 11.1365 16.0298 7.57139C16.0006 4.58629 18.4631 3.16642 18.579 3.07836C17.1884 1.02166 15.0156 0.789751 14.2623 0.731484Z" fill="white"/>
</svg>
