<svg width="21" height="18" viewBox="0 0 21 18" fill="none" xmlns="http://www.w3.org/2000/svg">
<path d="M3.89023 0C4.66847 0 5.41484 0.316071 5.96514 0.87868C6.51545 1.44129 6.8246 2.20435 6.8246 3V5.84L15.6277 0.47C16.1142 0.173178 16.6702 0.0164607 17.2367 0.0164607C17.8033 0.0164607 18.3593 0.173178 18.8458 0.47C19.3553 0.766028 19.7787 1.1952 20.0726 1.71357C20.3665 2.23193 20.5203 2.82085 20.5184 3.42V14.58C20.5281 15.1886 20.377 15.7886 20.0808 16.3166C19.7847 16.8447 19.3546 17.2811 18.836 17.58C18.3558 17.8578 17.8129 18.0025 17.2612 18C16.6853 17.9961 16.1211 17.8337 15.6277 17.53L6.8246 12.16V15C6.8246 15.7956 6.51545 16.5587 5.96514 17.1213C5.41484 17.6839 4.66847 18 3.89023 18C3.11198 18 2.36561 17.6839 1.81531 17.1213C1.26501 16.5587 0.955851 15.7956 0.955851 15V3C0.955851 2.20435 1.26501 1.44129 1.81531 0.87868C2.36561 0.316071 3.11198 0 3.89023 0ZM7.48973 10.23L16.6059 15.81C16.7944 15.9275 17.011 15.9896 17.2319 15.9896C17.4527 15.9896 17.6693 15.9275 17.8579 15.81C18.0722 15.6882 18.2506 15.5098 18.3745 15.2935C18.4984 15.0771 18.5632 14.8307 18.5621 14.58V3.42C18.5677 3.16692 18.5061 2.91703 18.3838 2.69691C18.2615 2.4768 18.0831 2.2947 17.8676 2.17C17.6828 2.06192 17.4741 2.00344 17.2612 2C17.0294 1.99747 16.8018 2.06344 16.6059 2.19L7.47995 7.77C7.27579 7.9003 7.10742 8.08157 6.99069 8.29675C6.87397 8.51193 6.81272 8.75394 6.81272 9C6.81272 9.24606 6.87397 9.48807 6.99069 9.70325C7.10742 9.91843 7.27579 10.0997 7.47995 10.23H7.48973ZM2.9121 15C2.9121 15.2652 3.01515 15.5196 3.19859 15.7071C3.38202 15.8946 3.63081 16 3.89023 16C4.14964 16 4.39843 15.8946 4.58187 15.7071C4.7653 15.5196 4.86835 15.2652 4.86835 15V3C4.86835 2.73478 4.7653 2.48043 4.58187 2.29289C4.39843 2.10536 4.14964 2 3.89023 2C3.63081 2 3.38202 2.10536 3.19859 2.29289C3.01515 2.48043 2.9121 2.73478 2.9121 3V15Z" fill="#EAF4F4"/>
</svg>
