<svg width="7" height="17" viewBox="0 0 7 17" fill="none" xmlns="http://www.w3.org/2000/svg">
<path d="M6.70632 2.54351C7.08014 2.15473 7.08283 1.52157 6.71234 1.12931C6.34184 0.737044 5.73846 0.73422 5.36464 1.123L3.08421 3.49471C2.2253 4.38797 1.52331 5.11803 1.02547 5.76853C0.507778 6.44496 0.133028 7.13155 0.0329208 7.9557C-0.0109736 8.31707 -0.0109735 8.68276 0.0329206 9.04413C0.133028 9.86828 0.507778 10.5549 1.02547 11.2313C1.52331 11.8818 2.22529 12.6118 3.08419 13.5051L5.36464 15.8768C5.73846 16.2656 6.34184 16.2628 6.71233 15.8705C7.08283 15.4783 7.08014 14.8451 6.70632 14.4563L4.46624 12.1266C3.55712 11.1811 2.93349 10.5303 2.51152 9.97897C2.10161 9.44338 1.96099 9.09936 1.92357 8.79125C1.90007 8.59779 1.90007 8.40204 1.92357 8.20858C1.96099 7.90047 2.10161 7.55645 2.51151 7.02086C2.93349 6.46949 3.55712 5.81877 4.46624 4.87325L6.70632 2.54351Z" fill="#DDDDDD"/>
</svg>
