<svg width="20" height="21" viewBox="0 0 20 21" fill="none" xmlns="http://www.w3.org/2000/svg">
<path d="M10.3083 2.40895L17.8083 5.40893C18.1 5.52559 18.3333 5.87559 18.3333 6.18392V8.95059C18.3333 9.40893 17.9583 9.78393 17.5 9.78393H2.49996C2.04163 9.78393 1.66663 9.40893 1.66663 8.95059V6.18392C1.66663 5.87559 1.89996 5.52559 2.19163 5.40893L9.69163 2.40895C9.8583 2.34228 10.1416 2.34228 10.3083 2.40895Z" stroke="white" stroke-width="1.25" stroke-miterlimit="10" stroke-linecap="round" stroke-linejoin="round"/>
<path d="M18.3333 18.9506H1.66663V16.4506C1.66663 15.9922 2.04163 15.6172 2.49996 15.6172H17.5C17.9583 15.6172 18.3333 15.9922 18.3333 16.4506V18.9506Z" stroke="white" stroke-width="1.25" stroke-miterlimit="10" stroke-linecap="round" stroke-linejoin="round"/>
<path d="M3.33337 15.6173V9.78392" stroke="white" stroke-width="1.25" stroke-miterlimit="10" stroke-linecap="round" stroke-linejoin="round"/>
<path d="M6.66663 15.6173V9.78392" stroke="white" stroke-width="1.25" stroke-miterlimit="10" stroke-linecap="round" stroke-linejoin="round"/>
<path d="M10 15.6173V9.78392" stroke="white" stroke-width="1.25" stroke-miterlimit="10" stroke-linecap="round" stroke-linejoin="round"/>
<path d="M13.3334 15.6173V9.78392" stroke="white" stroke-width="1.25" stroke-miterlimit="10" stroke-linecap="round" stroke-linejoin="round"/>
<path d="M16.6666 15.6173V9.78392" stroke="white" stroke-width="1.25" stroke-miterlimit="10" stroke-linecap="round" stroke-linejoin="round"/>
<path d="M0.833374 18.9506H19.1667" stroke="white" stroke-width="1.25" stroke-miterlimit="10" stroke-linecap="round" stroke-linejoin="round"/>
<path d="M10 7.70059C10.6904 7.70059 11.25 7.14095 11.25 6.45059C11.25 5.76024 10.6904 5.20059 10 5.20059C9.30964 5.20059 8.75 5.76024 8.75 6.45059C8.75 7.14095 9.30964 7.70059 10 7.70059Z" stroke="white" stroke-width="1.25" stroke-miterlimit="10" stroke-linecap="round" stroke-linejoin="round"/>
</svg>
