<svg width="30" height="30" viewBox="0 0 30 30" fill="none" xmlns="http://www.w3.org/2000/svg">
<circle cx="15" cy="15" r="15" fill="#2E2D2D"/>
<g clip-path="url(#clip0_1_8850)">
<path d="M6.9425 8.43249H9.42225L9.82825 7.2983C9.95425 6.94471 10.159 6.60651 10.4722 6.36054C10.7558 6.13848 11.1092 5.99841 11.5485 5.99841H19.4515C19.8907 5.99841 20.2443 6.13677 20.5278 6.36054C20.841 6.60651 21.0458 6.94471 21.1718 7.2983L21.5778 8.43249H24.0575C24.5913 8.43249 25.076 8.64601 25.4277 8.98934H25.4295C25.7812 9.33438 26 9.80924 26 10.3285V20.1041C26 20.6251 25.7812 21.0999 25.4295 21.4433C25.0777 21.7866 24.5913 22.0001 24.0575 22.0001H6.9425C6.40875 22.0001 5.924 21.7866 5.57225 21.4433V21.4399C5.21875 21.0965 5 20.6234 5 20.1024V10.3285C5 9.80753 5.21875 9.33438 5.5705 8.99105V8.98934C5.92225 8.64601 6.40875 8.43249 6.9425 8.43249ZM9.8615 9.64355H6.9425C6.75 9.64355 6.575 9.72042 6.44725 9.84511C6.32125 9.96809 6.2425 10.1406 6.2425 10.3285V20.1041C6.2425 20.2937 6.32125 20.4645 6.44725 20.5892C6.575 20.7122 6.75 20.7891 6.94425 20.7891H24.0592C24.2517 20.7891 24.4267 20.7122 24.5545 20.5875C24.6822 20.4628 24.761 20.292 24.761 20.1041V10.3285C24.761 10.1406 24.6822 9.96809 24.5562 9.8434C24.4285 9.72042 24.2535 9.64355 24.0592 9.64355H21.1403C20.8848 9.64184 20.645 9.4864 20.5557 9.23702L20.0045 7.69629C19.9467 7.53572 19.8645 7.39053 19.7525 7.30342C19.6808 7.24705 19.5828 7.21118 19.4515 7.21118H11.5485C11.4172 7.21118 11.3193 7.24705 11.2475 7.30342C11.1355 7.39053 11.0532 7.53572 10.9955 7.69629L10.4617 9.18919C10.3917 9.45053 10.1503 9.64355 9.8615 9.64355ZM15.5 8.74166C17.138 8.74166 18.622 9.39075 19.6965 10.4378C20.771 11.4866 21.4342 12.9351 21.4342 14.5339C21.4342 16.1327 20.7693 17.5812 19.6965 18.63C18.622 19.6771 17.138 20.3262 15.5 20.3262C13.862 20.3262 12.378 19.6771 11.3035 18.63C10.229 17.5812 9.56575 16.1327 9.56575 14.5339C9.56575 12.9351 10.2308 11.4866 11.3035 10.4378C12.378 9.38904 13.862 8.74166 15.5 8.74166ZM18.818 11.2953C17.9692 10.4669 16.795 9.95272 15.5 9.95272C14.205 9.95272 13.0308 10.4652 12.182 11.2953C11.3333 12.1237 10.8065 13.2699 10.8065 14.5339C10.8065 15.7979 11.3315 16.9441 12.182 17.7725C13.0308 18.601 14.205 19.1151 15.5 19.1151C16.795 19.1151 17.9692 18.6027 18.818 17.7725C19.6667 16.9441 20.1935 15.7979 20.1935 14.5339C20.1935 13.2699 19.6685 12.1237 18.818 11.2953Z" fill="white"/>
</g>
<defs>
<clipPath id="clip0_1_8850">
<rect width="21" height="16" fill="white" transform="translate(5 6)"/>
</clipPath>
</defs>
</svg>
