<svg width="33" height="34" viewBox="0 0 33 34" fill="none" xmlns="http://www.w3.org/2000/svg">
<path d="M16.1041 6.07671C13.1677 6.07671 10.4012 7.22038 8.31479 9.3068C6.22836 11.3932 5.08469 14.1597 5.08469 17.0961C5.08469 20.0326 6.22836 22.799 8.31479 24.8854C10.4012 26.9719 13.1677 28.1155 16.1041 28.1155C19.0405 28.1155 21.807 26.9719 23.8934 24.8854C25.9644 22.799 27.1081 20.0326 27.1235 17.0961C27.1235 14.1597 25.9798 11.3932 23.8934 9.3068C21.807 7.23584 19.0405 6.07671 16.1041 6.07671ZM16.1041 33.2002C7.23293 33.2002 0 25.9673 0 17.0961C0 8.2095 7.23293 0.99202 16.1041 0.99202C24.9753 0.99202 32.2082 8.2095 32.2082 17.0961C32.2082 25.9673 24.9753 33.2002 16.1041 33.2002Z" fill="#FFC20E"/>
</svg>
