<svg width="22" height="22" viewBox="0 0 22 22" fill="none" xmlns="http://www.w3.org/2000/svg">
<path d="M15.3819 7.27342H14.2827C14.0436 7.27342 13.8163 7.38827 13.6757 7.58514L9.99128 12.6945L8.32252 10.3789C8.18189 10.1844 7.95689 10.0672 7.71549 10.0672H6.61626C6.46392 10.0672 6.37486 10.2406 6.46392 10.3648L9.38424 14.4148C9.45323 14.5111 9.54418 14.5896 9.64954 14.6437C9.7549 14.6978 9.87165 14.7261 9.9901 14.7261C10.1086 14.7261 10.2253 14.6978 10.3307 14.6437C10.436 14.5896 10.527 14.5111 10.596 14.4148L15.5319 7.57108C15.6233 7.44686 15.5343 7.27342 15.3819 7.27342Z" fill="white"/>
<path d="M11 0.499985C5.20156 0.499985 0.5 5.20155 0.5 11C0.5 16.7984 5.20156 21.5 11 21.5C16.7984 21.5 21.5 16.7984 21.5 11C21.5 5.20155 16.7984 0.499985 11 0.499985ZM11 19.7187C6.18594 19.7187 2.28125 15.814 2.28125 11C2.28125 6.18592 6.18594 2.28123 11 2.28123C15.8141 2.28123 19.7188 6.18592 19.7188 11C19.7188 15.814 15.8141 19.7187 11 19.7187Z" fill="white"/>
</svg>
