<svg width="20" height="21" viewBox="0 0 20 21" fill="none" xmlns="http://www.w3.org/2000/svg">
<path d="M19.7504 10.2456C19.7504 9.51343 19.6845 8.81285 19.562 8.13917H10.0854V11.9988L15.5432 12C15.3218 13.2842 14.6094 14.3789 13.5179 15.1087V17.6128H16.7666C18.6636 15.869 19.7504 13.2912 19.7504 10.2456Z" fill="#4285F4"/>
<path d="M13.519 15.1088C12.6147 15.7146 11.4501 16.069 10.0877 16.069C7.45602 16.069 5.22347 14.3076 4.42394 11.9333H1.07275V14.5158C2.73304 17.7883 6.14545 20.0339 10.0877 20.0339C12.8125 20.0339 15.1016 19.1439 16.7677 17.6117L13.519 15.1088Z" fill="#34A853"/>
<path d="M4.10832 10.0176C4.10832 9.35092 4.22018 8.70648 4.42389 8.10063V5.51818H1.07271C0.386221 6.87139 0 8.39887 0 10.0176C0 11.6363 0.387398 13.1638 1.07271 14.517L4.42389 11.9345C4.22018 11.3287 4.10832 10.6843 4.10832 10.0176Z" fill="#FFA800"/>
<path d="M10.0877 3.96496C11.5749 3.96496 12.9067 4.47373 13.9582 5.46788L16.8372 2.61057C15.0886 0.99303 12.809 4.76837e-05 10.0877 4.76837e-05C6.14663 4.76837e-05 2.73304 2.24566 1.07275 5.51817L4.42394 8.10063C5.22347 5.72636 7.45602 3.96496 10.0877 3.96496Z" fill="#E94235"/>
</svg>
