<svg width="24" height="24" viewBox="0 0 24 24" fill="none" xmlns="http://www.w3.org/2000/svg">
<mask id="path-1-inside-1_1_7451" fill="white">
<path d="M23.144 11.5092H22.9129V14.3637H23.144C23.1893 14.3637 23.2265 14.3519 23.2494 14.3329C23.2512 14.3315 23.2526 14.3352 23.2535 14.3378L23.2547 11.5345C23.2526 11.5371 23.2512 11.5411 23.2497 11.5397C23.2268 11.521 23.1896 11.5089 23.1443 11.5089M3.43348 9.53089H2.78797C2.52576 9.53089 2.28649 9.63772 2.11343 9.80935C1.94036 9.98097 1.83263 10.2182 1.83263 10.4783V15.3943C1.83263 15.6549 1.94007 15.8922 2.11285 16.0638C2.28678 16.2349 2.52576 16.3417 2.78797 16.3417H3.43348C3.69628 16.3417 3.93555 16.2352 4.10861 16.0638C4.28139 15.8919 4.38883 15.6549 4.38883 15.3943V10.4783C4.38883 10.2182 4.2811 9.98097 4.10803 9.80935C3.93555 9.63743 3.69628 9.53089 3.43348 9.53089ZM1.08694 11.5092H0.855802C0.810503 11.5092 0.773335 11.521 0.750395 11.54C0.748653 11.5414 0.747201 11.5377 0.74633 11.5351L0.745168 14.3384C0.747201 14.3358 0.748362 14.3318 0.750104 14.3332C0.773044 14.3519 0.810213 14.364 0.855511 14.364H1.08665V11.5095L1.08694 11.5092ZM12.3719 22.1697H10.2841C10.2722 22.1697 10.2608 22.1749 10.2527 22.183C10.2446 22.191 10.2394 22.2023 10.2394 22.2141V23.2167C10.2394 23.2291 10.2443 23.2404 10.2518 23.2484C10.2606 23.2556 10.2719 23.2608 10.2838 23.2608H12.3716C12.3841 23.2608 12.3954 23.2559 12.4035 23.2484C12.4111 23.2404 12.416 23.2291 12.416 23.2167V22.2141C12.416 22.2023 12.4108 22.191 12.4027 22.183C12.3954 22.1746 12.3838 22.1697 12.3713 22.1697H12.3719ZM21.1378 17.0815C20.6401 18.8956 19.8558 20.2989 18.7846 21.29C17.6373 22.352 16.1726 22.934 14.3915 23.0356C14.2265 23.0448 13.9184 23.0503 13.6019 23.0512C13.4512 23.0515 13.2996 23.0512 13.1623 23.0492V23.2165C13.1623 23.4313 13.0734 23.6268 12.9306 23.7688L12.9291 23.7702C12.786 23.9119 12.5885 24 12.3722 24H10.2844C10.0666 24 9.86883 23.9119 9.72597 23.7702C9.5831 23.6268 9.49424 23.431 9.49424 23.2165V22.2138C9.49424 21.9978 9.5831 21.8017 9.72597 21.66C9.86883 21.5184 10.0666 21.4302 10.2844 21.4302H12.3722C12.5888 21.4302 12.786 21.5184 12.9291 21.66C13.0734 21.8017 13.1623 21.9978 13.1623 22.2138V22.3123C13.2996 22.3143 13.4518 22.3149 13.6019 22.3146C13.8935 22.3137 14.1844 22.3085 14.3508 22.299C15.952 22.2077 17.2613 21.6911 18.2782 20.7498C19.2109 19.8868 19.9081 18.6601 20.3695 17.0697C19.9798 17.0245 19.629 16.8477 19.3651 16.5859C19.0573 16.2789 18.8659 15.8574 18.8659 15.3943V10.4783C18.8659 10.0141 19.0573 9.59194 19.3651 9.2867C19.6604 8.99384 20.0643 8.80725 20.51 8.79256C20.1976 6.76936 19.3317 4.96155 18.0941 3.57329C16.5327 1.8225 14.3781 0.739193 12.0002 0.739193C9.6223 0.739193 7.46799 1.82221 5.90663 3.57329C4.66875 4.96155 3.80313 6.76936 3.49069 8.79256C3.93555 8.80725 4.33859 8.99356 4.6342 9.2867C4.94345 9.59194 5.1351 10.0141 5.1351 10.4783V15.3943C5.1351 15.8577 4.94374 16.2789 4.63594 16.5845L4.63449 16.5859C4.3264 16.8911 3.90128 17.0812 3.43435 17.0812H2.78885C2.32076 17.0812 1.89506 16.8914 1.58726 16.5859C1.27946 16.2789 1.0881 15.8574 1.0881 15.3943V15.1029H0.856963C0.636276 15.1029 0.43156 15.0257 0.279983 14.9016C0.10808 14.7611 0.0012207 14.5613 0.0012207 14.3381V11.5345C0.0012207 11.3111 0.10808 11.1115 0.279983 10.971C0.43156 10.8469 0.636276 10.7697 0.856963 10.7697H1.0881V10.4783C1.0881 10.0141 1.27946 9.59194 1.58726 9.2867C1.88374 8.99269 2.28969 8.80581 2.73774 8.79256C3.05774 6.58276 3.9974 4.60332 5.35085 3.08549C7.04985 1.1792 9.40074 0 11.9999 0C14.5991 0 16.95 1.1792 18.6499 3.08549C20.0036 4.60332 20.943 6.58247 21.263 8.79227C21.711 8.80552 22.117 8.9924 22.4134 9.28641C22.7212 9.59165 22.9126 10.0138 22.9126 10.478V10.7694H23.1437C23.3644 10.7694 23.5691 10.8466 23.7207 10.9707C23.8926 11.1112 23.9995 11.3108 23.9995 11.5342V14.3378C23.9995 14.561 23.8926 14.7608 23.7207 14.9013C23.5691 15.0254 23.3644 15.1026 23.1437 15.1026H22.9126V15.394C22.9126 15.8574 22.7212 16.2786 22.4134 16.5842C22.1056 16.8909 21.6799 17.0809 21.2119 17.0809H21.1378V17.0815ZM21.2119 9.53118H20.5663C20.3041 9.53118 20.0652 9.63801 19.8918 9.80964C19.7187 9.98126 19.611 10.2185 19.611 10.4786V15.3946C19.611 15.6552 19.7184 15.8925 19.8912 16.0641C20.0652 16.2352 20.3041 16.342 20.5663 16.342H21.2119C21.4741 16.342 21.7133 16.2352 21.8864 16.0635C22.0598 15.8925 22.1672 15.6552 22.1672 15.3946V10.4786C22.1672 10.2185 22.0595 9.98126 21.8864 9.80964C21.7133 9.63801 21.4741 9.53118 21.2119 9.53118Z"/>
</mask>
<path d="M23.144 11.5092H22.9129V14.3637H23.144C23.1893 14.3637 23.2265 14.3519 23.2494 14.3329C23.2512 14.3315 23.2526 14.3352 23.2535 14.3378L23.2547 11.5345C23.2526 11.5371 23.2512 11.5411 23.2497 11.5397C23.2268 11.521 23.1896 11.5089 23.1443 11.5089M3.43348 9.53089H2.78797C2.52576 9.53089 2.28649 9.63772 2.11343 9.80935C1.94036 9.98097 1.83263 10.2182 1.83263 10.4783V15.3943C1.83263 15.6549 1.94007 15.8922 2.11285 16.0638C2.28678 16.2349 2.52576 16.3417 2.78797 16.3417H3.43348C3.69628 16.3417 3.93555 16.2352 4.10861 16.0638C4.28139 15.8919 4.38883 15.6549 4.38883 15.3943V10.4783C4.38883 10.2182 4.2811 9.98097 4.10803 9.80935C3.93555 9.63743 3.69628 9.53089 3.43348 9.53089ZM1.08694 11.5092H0.855802C0.810503 11.5092 0.773335 11.521 0.750395 11.54C0.748653 11.5414 0.747201 11.5377 0.74633 11.5351L0.745168 14.3384C0.747201 14.3358 0.748362 14.3318 0.750104 14.3332C0.773044 14.3519 0.810213 14.364 0.855511 14.364H1.08665V11.5095L1.08694 11.5092ZM12.3719 22.1697H10.2841C10.2722 22.1697 10.2608 22.1749 10.2527 22.183C10.2446 22.191 10.2394 22.2023 10.2394 22.2141V23.2167C10.2394 23.2291 10.2443 23.2404 10.2518 23.2484C10.2606 23.2556 10.2719 23.2608 10.2838 23.2608H12.3716C12.3841 23.2608 12.3954 23.2559 12.4035 23.2484C12.4111 23.2404 12.416 23.2291 12.416 23.2167V22.2141C12.416 22.2023 12.4108 22.191 12.4027 22.183C12.3954 22.1746 12.3838 22.1697 12.3713 22.1697H12.3719ZM21.1378 17.0815C20.6401 18.8956 19.8558 20.2989 18.7846 21.29C17.6373 22.352 16.1726 22.934 14.3915 23.0356C14.2265 23.0448 13.9184 23.0503 13.6019 23.0512C13.4512 23.0515 13.2996 23.0512 13.1623 23.0492V23.2165C13.1623 23.4313 13.0734 23.6268 12.9306 23.7688L12.9291 23.7702C12.786 23.9119 12.5885 24 12.3722 24H10.2844C10.0666 24 9.86883 23.9119 9.72597 23.7702C9.5831 23.6268 9.49424 23.431 9.49424 23.2165V22.2138C9.49424 21.9978 9.5831 21.8017 9.72597 21.66C9.86883 21.5184 10.0666 21.4302 10.2844 21.4302H12.3722C12.5888 21.4302 12.786 21.5184 12.9291 21.66C13.0734 21.8017 13.1623 21.9978 13.1623 22.2138V22.3123C13.2996 22.3143 13.4518 22.3149 13.6019 22.3146C13.8935 22.3137 14.1844 22.3085 14.3508 22.299C15.952 22.2077 17.2613 21.6911 18.2782 20.7498C19.2109 19.8868 19.9081 18.6601 20.3695 17.0697C19.9798 17.0245 19.629 16.8477 19.3651 16.5859C19.0573 16.2789 18.8659 15.8574 18.8659 15.3943V10.4783C18.8659 10.0141 19.0573 9.59194 19.3651 9.2867C19.6604 8.99384 20.0643 8.80725 20.51 8.79256C20.1976 6.76936 19.3317 4.96155 18.0941 3.57329C16.5327 1.8225 14.3781 0.739193 12.0002 0.739193C9.6223 0.739193 7.46799 1.82221 5.90663 3.57329C4.66875 4.96155 3.80313 6.76936 3.49069 8.79256C3.93555 8.80725 4.33859 8.99356 4.6342 9.2867C4.94345 9.59194 5.1351 10.0141 5.1351 10.4783V15.3943C5.1351 15.8577 4.94374 16.2789 4.63594 16.5845L4.63449 16.5859C4.3264 16.8911 3.90128 17.0812 3.43435 17.0812H2.78885C2.32076 17.0812 1.89506 16.8914 1.58726 16.5859C1.27946 16.2789 1.0881 15.8574 1.0881 15.3943V15.1029H0.856963C0.636276 15.1029 0.43156 15.0257 0.279983 14.9016C0.10808 14.7611 0.0012207 14.5613 0.0012207 14.3381V11.5345C0.0012207 11.3111 0.10808 11.1115 0.279983 10.971C0.43156 10.8469 0.636276 10.7697 0.856963 10.7697H1.0881V10.4783C1.0881 10.0141 1.27946 9.59194 1.58726 9.2867C1.88374 8.99269 2.28969 8.80581 2.73774 8.79256C3.05774 6.58276 3.9974 4.60332 5.35085 3.08549C7.04985 1.1792 9.40074 0 11.9999 0C14.5991 0 16.95 1.1792 18.6499 3.08549C20.0036 4.60332 20.943 6.58247 21.263 8.79227C21.711 8.80552 22.117 8.9924 22.4134 9.28641C22.7212 9.59165 22.9126 10.0138 22.9126 10.478V10.7694H23.1437C23.3644 10.7694 23.5691 10.8466 23.7207 10.9707C23.8926 11.1112 23.9995 11.3108 23.9995 11.5342V14.3378C23.9995 14.561 23.8926 14.7608 23.7207 14.9013C23.5691 15.0254 23.3644 15.1026 23.1437 15.1026H22.9126V15.394C22.9126 15.8574 22.7212 16.2786 22.4134 16.5842C22.1056 16.8909 21.6799 17.0809 21.2119 17.0809H21.1378V17.0815ZM21.2119 9.53118H20.5663C20.3041 9.53118 20.0652 9.63801 19.8918 9.80964C19.7187 9.98126 19.611 10.2185 19.611 10.4786V15.3946C19.611 15.6552 19.7184 15.8925 19.8912 16.0641C20.0652 16.2352 20.3041 16.342 20.5663 16.342H21.2119C21.4741 16.342 21.7133 16.2352 21.8864 16.0635C22.0598 15.8925 22.1672 15.6552 22.1672 15.3946V10.4786C22.1672 10.2185 22.0595 9.98126 21.8864 9.80964C21.7133 9.63801 21.4741 9.53118 21.2119 9.53118Z" fill="#FFA800"/>
<path d="M22.9129 11.5092V9.50917H20.9129V11.5092H22.9129ZM22.9129 14.3637H20.9129V16.3637H22.9129V14.3637ZM23.2494 14.3329L21.9754 12.7912L21.9735 12.7928L23.2494 14.3329ZM23.2535 14.3378L21.3577 14.975L25.2535 14.3386L23.2535 14.3378ZM23.2547 11.5345L25.2547 11.5353L25.2571 5.74066L21.6809 10.3002L23.2547 11.5345ZM23.2497 11.5397L24.658 10.1196L24.5892 10.0513L24.5141 9.99008L23.2497 11.5397ZM2.11285 16.0638L0.703348 17.4828L0.710522 17.4898L2.11285 16.0638ZM4.10861 16.0638L5.51571 17.4851L5.51928 17.4816L4.10861 16.0638ZM4.10803 9.80935L2.69617 11.2259L2.69974 11.2295L4.10803 9.80935ZM1.08694 11.5092L2.49577 12.9287L5.94143 9.50917H1.08694V11.5092ZM0.750395 11.54L2.02444 13.0817L2.02635 13.0801L0.750395 11.54ZM0.74633 11.5351L2.6421 10.8979L-1.25367 11.5343L0.74633 11.5351ZM0.745168 14.3384L-1.25483 14.3375L-1.25723 20.1322L2.31888 15.5727L0.745168 14.3384ZM0.750104 14.3332L-0.523965 15.8749L-0.514283 15.8828L0.750104 14.3332ZM1.08665 14.364V16.364H3.08665V14.364H1.08665ZM1.08665 11.5095L-0.322178 10.0899L-0.913348 10.6766V11.5095H1.08665ZM10.2518 23.2484L8.79194 24.6154L8.87929 24.7087L8.97779 24.7901L10.2518 23.2484ZM12.4035 23.2484L13.7583 24.7197L13.8128 24.6695L13.8634 24.6154L12.4035 23.2484ZM12.4027 22.183L10.8933 23.4951L10.9418 23.551L10.9944 23.6031L12.4027 22.183ZM21.1378 17.0815L23.0665 17.6106L23.1378 17.3509V17.0815H21.1378ZM18.7846 21.29L17.4263 19.822L17.426 19.8223L18.7846 21.29ZM14.3915 23.0356L14.503 25.0325L14.5054 25.0324L14.3915 23.0356ZM13.6019 23.0512L13.6057 25.0512L13.6074 25.0512L13.6019 23.0512ZM13.1623 23.0492L13.1916 21.0494L11.1623 21.0196V23.0492H13.1623ZM12.9306 23.7688L14.3389 25.1889L14.3403 25.1875L12.9306 23.7688ZM12.9291 23.7702L14.336 25.1918L14.3374 25.1903L12.9291 23.7702ZM9.72597 23.7702L8.30907 25.1818L8.31768 25.1903L9.72597 23.7702ZM12.9291 21.66L11.5223 23.0816L11.528 23.0873L12.9291 21.66ZM13.1623 22.3123H11.1623V24.2831L13.1329 24.3121L13.1623 22.3123ZM13.6019 22.3146L13.6058 24.3146L13.6079 24.3146L13.6019 22.3146ZM14.3508 22.299L14.237 20.3023L14.2368 20.3023L14.3508 22.299ZM18.2782 20.7498L16.9199 19.2818L16.9195 19.2821L18.2782 20.7498ZM20.3695 17.0697L22.2903 17.6269L22.9492 15.3556L20.6 15.083L20.3695 17.0697ZM19.3651 16.5859L17.9528 18.002L17.9568 18.006L19.3651 16.5859ZM20.51 8.79256L20.5759 10.7915L22.8309 10.7172L22.4866 8.48732L20.51 8.79256ZM18.0941 3.57329L19.587 2.24241L19.5867 2.24214L18.0941 3.57329ZM5.90663 3.57329L7.39938 4.90435L7.3994 4.90432L5.90663 3.57329ZM3.49069 8.79256L1.51412 8.48732L1.16978 10.717L3.4247 10.7915L3.49069 8.79256ZM4.6342 9.2867L3.2259 10.7068L3.22925 10.7101L4.6342 9.2867ZM4.63594 16.5845L6.04423 18.0046L6.0449 18.0039L4.63594 16.5845ZM4.63449 16.5859L6.04211 18.0067L6.04277 18.006L4.63449 16.5859ZM1.58726 16.5859L0.174968 18.002L0.178305 18.0054L1.58726 16.5859ZM1.0881 15.1029H3.0881V13.1029H1.0881V15.1029ZM0.279983 14.9016L1.54703 13.3542L1.54579 13.3532L0.279983 14.9016ZM0.279983 10.971L1.54579 12.5194L1.54703 12.5184L0.279983 10.971ZM1.0881 10.7697V12.7697H3.0881V10.7697H1.0881ZM2.73774 8.79256L2.79684 10.7917L4.4763 10.742L4.71709 9.07919L2.73774 8.79256ZM5.35085 3.08549L6.84358 4.41656L6.84391 4.41619L5.35085 3.08549ZM18.6499 3.08549L17.1571 4.41657L17.1573 4.41672L18.6499 3.08549ZM21.263 8.79227L19.2836 9.0789L19.5244 10.7417L21.2039 10.7914L21.263 8.79227ZM22.9126 10.7694H20.9126V12.7694H22.9126V10.7694ZM23.7207 10.9707L22.4537 12.5181L22.4549 12.5192L23.7207 10.9707ZM23.7207 14.9013L22.4549 13.3529L22.4537 13.3539L23.7207 14.9013ZM22.9126 15.1026V13.1026H20.9126V15.1026H22.9126ZM22.4134 16.5842L21.0045 15.1647L21.0018 15.1674L22.4134 16.5842ZM21.1378 17.0809V15.0809H19.1378V17.0809H21.1378ZM19.8918 9.80964L18.4847 8.38834L18.4835 8.38952L19.8918 9.80964ZM19.8912 16.0641L18.4817 17.4831L18.4889 17.4901L19.8912 16.0641ZM21.8864 16.0635L20.4817 14.6399L20.4781 14.6434L21.8864 16.0635ZM23.144 9.50917H22.9129V13.5092H23.144V9.50917ZM20.9129 11.5092V14.3637H24.9129V11.5092H20.9129ZM22.9129 16.3637H23.144V12.3637H22.9129V16.3637ZM23.144 16.3637C23.486 16.3637 24.032 16.2818 24.5254 15.873L21.9735 12.7928C22.421 12.422 22.8927 12.3637 23.144 12.3637V16.3637ZM24.5235 15.8746C24.3064 16.0539 23.976 16.2479 23.5387 16.3117C23.0907 16.377 22.691 16.2822 22.387 16.1366C21.8703 15.8892 21.6211 15.4963 21.5662 15.4104C21.476 15.2691 21.4243 15.148 21.4039 15.0985C21.3794 15.0391 21.3633 14.9916 21.3577 14.975L25.1493 13.7006C25.1433 13.6827 25.1267 13.6338 25.1016 13.573C25.0806 13.5221 25.0283 13.3997 24.9373 13.2573C24.8818 13.1703 24.6318 12.7765 24.1144 12.5288C23.8099 12.383 23.4099 12.2881 22.9614 12.3535C22.5237 12.4174 22.1929 12.6115 21.9754 12.7912L24.5235 15.8746ZM25.2535 14.3386L25.2547 11.5353L21.2547 11.5337L21.2535 14.337L25.2535 14.3386ZM21.6809 10.3002C21.6064 10.3953 21.5564 10.478 21.5518 10.4854C21.5226 10.5327 21.569 10.4559 21.6086 10.3988C21.6092 10.3978 21.8253 10.0547 22.2471 9.80999C22.5104 9.65715 22.9478 9.48761 23.4948 9.555C24.0445 9.62272 24.4326 9.89608 24.658 10.1196L21.8414 12.9598C22.0672 13.1837 22.4557 13.4572 23.0057 13.525C23.5531 13.5924 23.9908 13.4228 24.2546 13.2697C24.6771 13.0246 24.8939 12.6805 24.8954 12.6785C24.9358 12.6202 24.983 12.542 24.9547 12.5878C24.951 12.5938 24.9019 12.675 24.8284 12.7688L21.6809 10.3002ZM24.5141 9.99008C24.0325 9.59708 23.4993 9.50889 23.1443 9.50889V13.5089C22.8799 13.5089 22.4211 13.4449 21.9853 13.0893L24.5141 9.99008ZM3.43348 7.53089H2.78797V11.5309H3.43348V7.53089ZM2.78797 7.53089C1.97425 7.53089 1.23541 7.86338 0.705138 8.38923L3.52172 11.2295C3.33758 11.4121 3.07728 11.5309 2.78797 11.5309V7.53089ZM0.705138 8.38923C0.174644 8.91531 -0.167368 9.6557 -0.167368 10.4783H3.83263C3.83263 10.7808 3.70608 11.0466 3.52172 11.2295L0.705138 8.38923ZM-0.167368 10.4783V15.3943H3.83263V10.4783H-0.167368ZM-0.167368 15.3943C-0.167368 16.2151 0.172565 16.9555 0.703366 17.4828L3.52233 14.6449C3.70758 14.8289 3.83263 15.0947 3.83263 15.3943H-0.167368ZM0.710522 17.4898C1.23804 18.0086 1.97309 18.3417 2.78797 18.3417V14.3417C3.07843 14.3417 3.33552 14.4612 3.51517 14.6378L0.710522 17.4898ZM2.78797 18.3417H3.43348V14.3417H2.78797V18.3417ZM3.43348 18.3417C4.24548 18.3417 4.98428 18.0112 5.51571 17.4851L2.70152 14.6425C2.88681 14.4591 3.14707 14.3417 3.43348 14.3417V18.3417ZM5.51928 17.4816C6.04826 16.9552 6.38883 16.2161 6.38883 15.3943H2.38883C2.38883 15.0938 2.51452 14.8286 2.69794 14.6461L5.51928 17.4816ZM6.38883 15.3943V10.4783H2.38883V15.3943H6.38883ZM6.38883 10.4783C6.38883 9.6557 6.04681 8.91531 5.51632 8.38923L2.69974 11.2295C2.51538 11.0466 2.38883 10.7808 2.38883 10.4783H6.38883ZM5.51989 8.39279C4.98669 7.86135 4.24522 7.53089 3.43348 7.53089V11.5309C3.14733 11.5309 2.8844 11.4135 2.69617 11.2259L5.51989 8.39279ZM1.08694 9.50917H0.855802V13.5092H1.08694V9.50917ZM0.855802 9.50917C0.513853 9.50917 -0.032149 9.59109 -0.525563 9.99988L2.02635 13.0801C1.57882 13.4509 1.10715 13.5092 0.855802 13.5092V9.50917ZM-0.52365 9.99829C-0.306642 9.81896 0.0237547 9.62503 0.461084 9.56124C0.90918 9.49588 1.30882 9.59072 1.6129 9.73632C2.1296 9.98374 2.3788 10.3767 2.43366 10.4626C2.5239 10.6039 2.57556 10.725 2.59596 10.7745C2.62047 10.8339 2.63654 10.8813 2.6421 10.8979L-1.14944 12.1723C-1.14344 12.1902 -1.12687 12.239 -1.10179 12.2998C-1.08081 12.3507 -1.02852 12.4731 -0.937586 12.6155C-0.882039 12.7025 -0.632094 13.0963 -0.114603 13.3441C0.189868 13.4898 0.589915 13.5848 1.03843 13.5194C1.47617 13.4555 1.807 13.2614 2.02444 13.0817L-0.52365 9.99829ZM-1.25367 11.5343L-1.25483 14.3375L2.74517 14.3392L2.74633 11.5359L-1.25367 11.5343ZM2.31888 15.5727C2.40739 15.4598 2.46413 15.3611 2.47199 15.3476C2.50828 15.2857 2.45528 15.3781 2.41559 15.438C2.40873 15.4484 2.18403 15.8216 1.72603 16.0781C1.439 16.2388 1.02311 16.3756 0.528555 16.3207C0.0470164 16.2671 -0.307097 16.0541 -0.52394 15.8749L2.02415 12.7915C1.80687 12.6119 1.45234 12.3987 0.970396 12.3451C0.475432 12.2901 0.0591584 12.427 -0.228259 12.588C-0.687038 12.8449 -0.912475 13.219 -0.920099 13.2305C-0.960553 13.2916 -1.01434 13.3854 -0.978889 13.3249C-0.971866 13.3129 -0.916043 13.2157 -0.828543 13.1041L2.31888 15.5727ZM-0.514283 15.8828C-0.0326562 16.2758 0.500457 16.364 0.855511 16.364V12.364C1.11997 12.364 1.57874 12.428 2.01449 12.7836L-0.514283 15.8828ZM0.855511 16.364H1.08665V12.364H0.855511V16.364ZM3.08665 14.364V11.5095H-0.913348V14.364H3.08665ZM2.49548 12.929L2.49577 12.9287L-0.321888 10.0896L-0.322178 10.0899L2.49548 12.929ZM12.3719 20.1697H10.2841V24.1697H12.3719V20.1697ZM10.2841 20.1697C9.69686 20.1697 9.19179 20.4184 8.84442 20.7629L11.661 23.6031C11.3299 23.9314 10.8475 24.1697 10.2841 24.1697V20.1697ZM8.84442 20.7629C8.49721 21.1072 8.23935 21.6156 8.23935 22.2141H12.2394C12.2394 22.7889 11.9919 23.2749 11.661 23.6031L8.84442 20.7629ZM8.23935 22.2141V23.2167H12.2394V22.2141H8.23935ZM8.23935 23.2167C8.23935 23.7636 8.45612 24.2568 8.79194 24.6154L11.7117 21.8814C12.0325 22.2239 12.2394 22.6946 12.2394 23.2167H8.23935ZM8.97779 24.7901C9.2518 25.0166 9.69879 25.2608 10.2838 25.2608V21.2608C10.845 21.2608 11.2693 21.4947 11.5259 21.7067L8.97779 24.7901ZM10.2838 25.2608H12.3716V21.2608H10.2838V25.2608ZM12.3716 25.2608C12.9084 25.2608 13.3977 25.0517 13.7583 24.7197L11.0488 21.7772C11.3931 21.4601 11.8598 21.2608 12.3716 21.2608V25.2608ZM13.8634 24.6154C14.1993 24.2568 14.416 23.7636 14.416 23.2167H10.416C10.416 22.6946 10.6229 22.2239 10.9436 21.8814L13.8634 24.6154ZM14.416 23.2167V22.2141H10.416V23.2167H14.416ZM14.416 22.2141C14.416 21.6156 14.1582 21.1072 13.811 20.7629L10.9944 23.6031C10.6634 23.2749 10.416 22.7889 10.416 22.2141H14.416ZM13.9121 20.8708C13.4724 20.3651 12.8776 20.1697 12.3713 20.1697V24.1697C11.89 24.1697 11.3184 23.9841 10.8933 23.4951L13.9121 20.8708ZM12.3713 24.1697H12.3719V20.1697H12.3713V24.1697ZM19.2091 16.5523C18.7819 18.1093 18.1545 19.1482 17.4263 19.822L20.1429 22.758C21.5571 21.4495 22.4983 19.682 23.0665 17.6106L19.2091 16.5523ZM17.426 19.8223C16.6672 20.5247 15.6642 20.9597 14.2775 21.0389L14.5054 25.0324C16.6811 24.9082 18.6074 24.1793 20.1432 22.7577L17.426 19.8223ZM14.2799 21.0387C14.1721 21.0448 13.9097 21.0503 13.5965 21.0512L13.6074 25.0512C13.9271 25.0503 14.2809 25.0449 14.503 25.0325L14.2799 21.0387ZM13.5981 21.0512C13.4508 21.0515 13.3123 21.0511 13.1916 21.0494L13.1329 25.0489C13.287 25.0512 13.4516 25.0515 13.6057 25.0512L13.5981 21.0512ZM11.1623 23.0492V23.2165H15.1623V23.0492H11.1623ZM11.1623 23.2165C11.1623 22.8681 11.3081 22.5615 11.5208 22.3501L14.3403 25.1875C14.8388 24.6921 15.1623 23.9944 15.1623 23.2165H11.1623ZM11.5223 22.3487L11.5208 22.3501L14.3374 25.1903L14.3389 25.1889L11.5223 22.3487ZM11.5223 22.3487C11.7355 22.1376 12.0368 22 12.3722 22V26C13.1402 26 13.8364 25.6861 14.336 25.1917L11.5223 22.3487ZM12.3722 22H10.2844V26H12.3722V22ZM10.2844 22C10.6152 22 10.9178 22.1354 11.1343 22.3501L8.31768 25.1903C8.81986 25.6883 9.51792 26 10.2844 26V22ZM11.1428 22.3587C11.3478 22.5644 11.4942 22.8667 11.4942 23.2165H7.49424C7.49424 23.9953 7.81838 24.6892 8.3091 25.1818L11.1428 22.3587ZM11.4942 23.2165V22.2138H7.49424V23.2165H11.4942ZM11.4942 22.2138C11.4942 22.5575 11.351 22.8652 11.1343 23.0802L8.31768 20.2399C7.81523 20.7382 7.49424 21.4382 7.49424 22.2138H11.4942ZM11.1343 23.0802C10.9178 23.2948 10.6152 23.4302 10.2844 23.4302V19.4302C9.51793 19.4302 8.81986 19.7419 8.31768 20.2399L11.1343 23.0802ZM10.2844 23.4302H12.3722V19.4302H10.2844V23.4302ZM12.3722 23.4302C12.0367 23.4302 11.7352 23.2923 11.5223 23.0816L14.336 20.2385C13.8367 19.7444 13.1409 19.4302 12.3722 19.4302V23.4302ZM11.528 23.0873C11.3066 22.8699 11.1623 22.5585 11.1623 22.2138H15.1623C15.1623 21.4371 14.8403 20.7335 14.3302 20.2328L11.528 23.0873ZM11.1623 22.2138V22.3123H15.1623V22.2138H11.1623ZM13.1329 24.3121C13.285 24.3143 13.449 24.3149 13.6058 24.3146L13.5981 20.3146C13.4546 20.3148 13.3143 20.3143 13.1916 20.3125L13.1329 24.3121ZM13.6079 24.3146C13.9036 24.3137 14.2406 24.3086 14.4648 24.2958L14.2368 20.3023C14.1282 20.3085 13.8833 20.3137 13.596 20.3146L13.6079 24.3146ZM14.4646 24.2958C16.4529 24.1824 18.2266 23.5229 19.6368 22.2175L16.9195 19.2821C16.2959 19.8594 15.451 20.2331 14.237 20.3023L14.4646 24.2958ZM19.6365 22.2178C20.9052 21.0439 21.7576 19.463 22.2903 17.6269L18.4487 16.5124C18.0585 17.8571 17.5165 18.7297 16.9199 19.2818L19.6365 22.2178ZM20.6 15.083C20.6697 15.0911 20.7297 15.1225 20.7733 15.1658L17.9568 18.006C18.5283 18.5728 19.2899 18.9578 20.139 19.0564L20.6 15.083ZM20.7773 15.1698C20.8228 15.2151 20.8659 15.2944 20.8659 15.3943H16.8659C16.8659 16.4203 17.2917 17.3427 17.9528 18.002L20.7773 15.1698ZM20.8659 15.3943V10.4783H16.8659V15.3943H20.8659ZM20.8659 10.4783C20.8659 10.5747 20.8244 10.6561 20.7733 10.7068L17.9568 7.86659C17.2901 8.52774 16.8659 9.45352 16.8659 10.4783H20.8659ZM20.7733 10.7068C20.7246 10.7551 20.6545 10.7889 20.5759 10.7915L20.4441 6.79365C19.474 6.82561 18.5961 7.23259 17.9568 7.86659L20.7733 10.7068ZM22.4866 8.48732C22.1168 6.09304 21.0882 3.92641 19.587 2.24241L16.6012 4.90417C17.5751 5.99668 18.2783 7.44567 18.5334 9.09781L22.4866 8.48732ZM19.5867 2.24214C17.69 0.115261 15.0113 -1.26081 12.0002 -1.26081V2.73919C13.7449 2.73919 15.3754 3.52973 16.6014 4.90445L19.5867 2.24214ZM12.0002 -1.26081C8.98917 -1.26081 6.3107 0.11493 4.41386 2.24226L7.3994 4.90432C8.62528 3.52949 10.2554 2.73919 12.0002 2.73919V-1.26081ZM4.41388 2.24224C2.9121 3.92645 1.88384 6.09322 1.51412 8.48732L5.46726 9.09781C5.72243 7.44549 6.4254 5.99664 7.39938 4.90435L4.41388 2.24224ZM3.4247 10.7915C3.34419 10.7888 3.27352 10.754 3.22591 10.7068L6.04248 7.86659C5.40366 7.23308 4.5269 6.82568 3.55668 6.79365L3.4247 10.7915ZM3.22925 10.7101C3.17737 10.6589 3.1351 10.576 3.1351 10.4783H7.1351C7.1351 9.45219 6.70952 8.52496 6.03914 7.86328L3.22925 10.7101ZM3.1351 10.4783V15.3943H7.1351V10.4783H3.1351ZM3.1351 15.3943C3.1351 15.2953 3.17785 15.2138 3.22698 15.165L6.0449 18.0039C6.70963 17.3441 7.1351 16.42 7.1351 15.3943H3.1351ZM3.22765 15.1643L3.2262 15.1658L6.04277 18.006L6.04423 18.0046L3.22765 15.1643ZM3.22687 15.1651C3.27531 15.1171 3.34928 15.0812 3.43435 15.0812V19.0812C4.45328 19.0812 5.37748 18.6652 6.04211 18.0067L3.22687 15.1651ZM3.43435 15.0812H2.78885V19.0812H3.43435V15.0812ZM2.78885 15.0812C2.87039 15.0812 2.94513 15.1157 2.99622 15.1665L0.178305 18.0054C0.845002 18.6671 1.77112 19.0812 2.78885 19.0812V15.0812ZM2.99955 15.1698C3.04505 15.2151 3.0881 15.2944 3.0881 15.3943H-0.911896C-0.911896 16.4203 -0.486129 17.3427 0.174972 18.002L2.99955 15.1698ZM3.0881 15.3943V15.1029H-0.911896V15.3943H3.0881ZM1.0881 13.1029H0.856963V17.1029H1.0881V13.1029ZM0.856963 13.1029C1.09582 13.1029 1.33935 13.1841 1.54703 13.3542L-0.987061 16.4491C-0.476228 16.8673 0.176728 17.1029 0.856963 17.1029V13.1029ZM1.54579 13.3532C1.77991 13.5445 2.00122 13.8892 2.00122 14.3381H-1.99878C-1.99878 15.2333 -1.56375 15.9777 -0.985823 16.4501L1.54579 13.3532ZM2.00122 14.3381V11.5345H-1.99878V14.3381H2.00122ZM2.00122 11.5345C2.00122 11.9835 1.77955 12.3284 1.54579 12.5194L-0.985823 9.42251C-1.56339 9.89465 -1.99878 10.6386 -1.99878 11.5345H2.00122ZM1.54703 12.5184C1.33935 12.6885 1.09582 12.7697 0.856963 12.7697V8.76969C0.176728 8.76969 -0.476228 9.00526 -0.987061 9.42353L1.54703 12.5184ZM0.856963 12.7697H1.0881V8.76969H0.856963V12.7697ZM3.0881 10.7697V10.4783H-0.911896V10.7697H3.0881ZM3.0881 10.4783C3.0881 10.5747 3.04666 10.6561 2.99555 10.7068L0.178974 7.86659C-0.487734 8.52774 -0.911896 9.45352 -0.911896 10.4783H3.0881ZM2.99555 10.7068C2.94649 10.7555 2.87574 10.7894 2.79684 10.7917L2.67864 6.79343C1.70363 6.82226 0.820988 7.22992 0.178974 7.86659L2.99555 10.7068ZM4.71709 9.07919C4.98208 7.24929 5.75691 5.63522 6.84358 4.41656L3.85811 1.75442C2.23789 3.57143 1.13339 5.91623 0.758384 8.50594L4.71709 9.07919ZM6.84391 4.41619C8.20541 2.88858 10.0313 2 11.9999 2V-2C8.77019 -2 5.89429 -0.530186 3.85779 1.75479L6.84391 4.41619ZM11.9999 2C13.9685 2 15.7946 2.88854 17.1571 4.41657L20.1426 1.75441C18.1054 -0.530145 15.2297 -2 11.9999 -2V2ZM17.1573 4.41672C18.244 5.63523 19.0186 7.24891 19.2836 9.0789L23.2423 8.50565C22.8673 5.91603 21.7631 3.57141 20.1424 1.75426L17.1573 4.41672ZM21.2039 10.7914C21.125 10.7891 21.0542 10.7552 21.0051 10.7065L23.8217 7.8663C23.1797 7.22963 22.2971 6.82197 21.3221 6.79315L21.2039 10.7914ZM21.0051 10.7065C20.954 10.6558 20.9126 10.5744 20.9126 10.478H24.9126C24.9126 9.45323 24.4884 8.52745 23.8217 7.8663L21.0051 10.7065ZM20.9126 10.478V10.7694H24.9126V10.478H20.9126ZM22.9126 12.7694H23.1437V8.7694H22.9126V12.7694ZM23.1437 12.7694C22.9049 12.7694 22.6613 12.6882 22.4537 12.5181L24.9878 9.42324C24.4769 9.00498 23.824 8.7694 23.1437 8.7694V12.7694ZM22.4549 12.5192C22.2212 12.3281 21.9995 11.9832 21.9995 11.5342H25.9995C25.9995 10.6383 25.5641 9.89436 24.9865 9.42223L22.4549 12.5192ZM21.9995 11.5342V14.3378H25.9995V11.5342H21.9995ZM21.9995 14.3378C21.9995 13.8889 22.2208 13.5443 22.4549 13.3529L24.9865 16.4498C25.5645 15.9774 25.9995 15.233 25.9995 14.3378H21.9995ZM22.4537 13.3539C22.6614 13.1838 22.9049 13.1026 23.1437 13.1026V17.1026C23.824 17.1026 24.4769 16.8671 24.9878 16.4488L22.4537 13.3539ZM23.1437 13.1026H22.9126V17.1026H23.1437V13.1026ZM20.9126 15.1026V15.394H24.9126V15.1026H20.9126ZM20.9126 15.394C20.9126 15.295 20.9553 15.2135 21.0045 15.1647L23.8224 18.0036C24.4871 17.3438 24.9126 16.4197 24.9126 15.394H20.9126ZM21.0018 15.1674C21.0532 15.1161 21.1291 15.0809 21.2119 15.0809V19.0809C22.2308 19.0809 23.158 18.6656 23.8251 18.001L21.0018 15.1674ZM21.2119 15.0809H21.1378V19.0809H21.2119V15.0809ZM19.1378 17.0809V17.0815H23.1378V17.0809H19.1378ZM21.2119 7.53118H20.5663V11.5312H21.2119V7.53118ZM20.5663 7.53118C19.7517 7.53118 19.014 7.8643 18.4847 8.38834L21.2989 11.2309C21.1163 11.4117 20.8566 11.5312 20.5663 11.5312V7.53118ZM18.4835 8.38952C17.953 8.91559 17.611 9.65598 17.611 10.4786H21.611C21.611 10.7811 21.4844 11.0469 21.3001 11.2297L18.4835 8.38952ZM17.611 10.4786V15.3946H21.611V10.4786H17.611ZM17.611 15.3946C17.611 16.2154 17.9509 16.9558 18.4817 17.483L21.3007 14.6452C21.4859 14.8292 21.611 15.095 21.611 15.3946H17.611ZM18.4889 17.4901C19.0164 18.0089 19.7515 18.342 20.5663 18.342V14.342C20.8568 14.342 21.1139 14.4614 21.2935 14.6381L18.4889 17.4901ZM20.5663 18.342H21.2119V14.342H20.5663V18.342ZM21.2119 18.342C22.0256 18.342 22.7644 18.0095 23.2947 17.4837L20.4781 14.6434C20.6622 14.4608 20.9225 14.342 21.2119 14.342V18.342ZM23.2911 17.4872C23.8272 16.9582 24.1672 16.2152 24.1672 15.3946H20.1672C20.1672 15.0952 20.2923 14.8268 20.4817 14.6399L23.2911 17.4872ZM24.1672 15.3946V10.4786H20.1672V15.3946H24.1672ZM24.1672 10.4786C24.1672 9.65598 23.8252 8.91559 23.2947 8.38952L20.4781 11.2297C20.2938 11.0469 20.1672 10.7811 20.1672 10.4786H24.1672ZM23.2947 8.38952C22.7644 7.86367 22.0256 7.53118 21.2119 7.53118V11.5312C20.9225 11.5312 20.6622 11.4123 20.4781 11.2297L23.2947 8.38952Z" fill="#FFA800" mask="url(#path-1-inside-1_1_7451)"/>
</svg>
