<svg width="12" height="12" viewBox="0 0 12 12" fill="none" xmlns="http://www.w3.org/2000/svg">
<path fill-rule="evenodd" clip-rule="evenodd" d="M10.6667 6.66667C11.0203 6.66667 11.3594 6.80714 11.6095 7.05719C11.8595 7.30724 12 7.64638 12 8V10.6667C12 11.0203 11.8595 11.3594 11.6095 11.6095C11.3594 11.8595 11.0203 12 10.6667 12C10.313 12 9.97391 11.8595 9.72386 11.6095C9.47381 11.3594 9.33333 11.0203 9.33333 10.6667V4.66667C9.33333 3.78261 8.98214 2.93477 8.35702 2.30964C7.7319 1.68452 6.88406 1.33333 6 1.33333C5.11595 1.33333 4.2681 1.68452 3.64298 2.30964C3.01786 2.93477 2.66667 3.78261 2.66667 4.66667V10.6667C2.66667 11.0203 2.52619 11.3594 2.27614 11.6095C2.02609 11.8595 1.68696 12 1.33333 12C0.979711 12 0.640573 11.8595 0.390524 11.6095C0.140476 11.3594 0 11.0203 0 10.6667L0 8C0 7.64638 0.140476 7.30724 0.390524 7.05719C0.640573 6.80714 0.979711 6.66667 1.33333 6.66667V4.66667C1.33333 4.05383 1.45404 3.447 1.68856 2.88081C1.92308 2.31462 2.26683 1.80018 2.70017 1.36683C3.13351 0.933495 3.64796 0.589751 4.21414 0.355229C4.78033 0.120707 5.38716 0 6 0C6.61284 0 7.21967 0.120707 7.78586 0.355229C8.35204 0.589751 8.86649 0.933495 9.29983 1.36683C9.73317 1.80018 10.0769 2.31462 10.3114 2.88081C10.546 3.447 10.6667 4.05383 10.6667 4.66667V6.66667Z" fill="#C4CCCC"/>
</svg>
