<svg width="14" height="18" viewBox="0 0 14 18" fill="none" xmlns="http://www.w3.org/2000/svg">
<path fill-rule="evenodd" clip-rule="evenodd" d="M5.37847 1.21538C6.31286 0.419093 7.68716 0.419093 8.62155 1.21538L8.68015 1.26532C9.08056 1.60654 9.57841 1.81276 10.1028 1.85461L10.1796 1.86073C11.4034 1.95839 12.3751 2.93017 12.4728 4.15394L12.4789 4.23069C12.5208 4.7551 12.727 5.25295 13.0682 5.65336L13.1181 5.71196C13.9144 6.64636 13.9144 8.02066 13.1181 8.95505L13.0682 9.01365C12.727 9.41406 12.5208 9.91191 12.4789 10.4363L12.4728 10.5131C12.4035 11.3815 11.894 12.123 11.1667 12.5153V16.6301C11.1667 17.1884 10.6286 17.5887 10.0939 17.4283L7.00001 16.5002L3.90613 17.4283C3.37146 17.5887 2.83334 17.1884 2.83334 16.6301V12.5153C2.10601 12.123 1.59654 11.3815 1.52724 10.5131L1.52111 10.4363C1.47926 9.91191 1.27305 9.41406 0.93182 9.01365L0.881882 8.95505C0.0855971 8.02066 0.0855967 6.64636 0.881881 5.71196L0.931819 5.65336C1.27305 5.25295 1.47926 4.75511 1.52111 4.23069L1.52724 4.15394C1.62489 2.93017 2.59667 1.95839 3.82044 1.86073L3.89719 1.85461C4.42161 1.81276 4.91946 1.60654 5.31987 1.26532L5.37847 1.21538ZM7.54053 2.4839L7.59912 2.53384C8.26647 3.10255 9.09622 3.44624 9.97025 3.51599L10.047 3.52212C10.4549 3.55467 10.7788 3.8786 10.8114 4.28652L10.8175 4.36327C10.8873 5.23729 11.231 6.06704 11.7997 6.73439L11.8496 6.79299C12.115 7.10446 12.115 7.56256 11.8496 7.87402L11.7997 7.93262C11.231 8.59997 10.8873 9.42972 10.8175 10.3037L10.8114 10.3805C10.7788 10.7884 10.4549 11.1123 10.047 11.1449L9.97025 11.151C9.09622 11.2208 8.26648 11.5645 7.59913 12.1332L7.54053 12.1831C7.22906 12.4485 6.77096 12.4485 6.4595 12.1831L6.4009 12.1332C5.73355 11.5645 4.9038 11.2208 4.02977 11.151L3.95302 11.1449C3.5451 11.1123 3.22117 10.7884 3.18862 10.3805L3.1825 10.3037C3.11275 9.42972 2.76906 8.59997 2.20034 7.93262L2.15041 7.87402C1.88498 7.56256 1.88498 7.10446 2.15041 6.79299L2.20034 6.73439C2.76905 6.06704 3.11275 5.2373 3.1825 4.36327L3.18862 4.28652C3.22117 3.8786 3.5451 3.55467 3.95302 3.52212L4.02977 3.51599C4.9038 3.44624 5.73355 3.10255 6.4009 2.53384L6.4595 2.4839C6.77096 2.21847 7.22906 2.21847 7.54053 2.4839ZM4.50001 12.9365V15.5101L6.5211 14.9038C6.8335 14.8101 7.16652 14.8101 7.47892 14.9038L9.50001 15.5101V12.9365C9.20144 13.0376 8.92289 13.1948 8.68015 13.4017L8.62156 13.4516C7.68716 14.2479 6.31286 14.2479 5.37847 13.4516L5.31987 13.4017C5.07713 13.1948 4.79858 13.0376 4.50001 12.9365Z" fill="#D1D3D4"/>
</svg>
