<svg width="24" height="24" viewBox="0 0 24 24" fill="none" xmlns="http://www.w3.org/2000/svg">
<g clip-path="url(#clip0_1_7501)">
<path d="M19.9892 24H4.01084C1.79892 24 0 22.2011 0 19.9892L0 4.01084C0 1.79892 1.79892 0 4.01084 0L19.9892 0C22.2011 0 24 1.79892 24 4.01084V19.9892C24 22.2011 22.2011 24 19.9892 24ZM4.01084 1.31296C2.52341 1.31296 1.31296 2.52341 1.31296 4.01084V19.9892C1.31296 21.4766 2.52341 22.687 4.01084 22.687H19.9892C21.4766 22.687 22.687 21.4766 22.687 19.9892V4.01084C22.687 2.52341 21.4766 1.31296 19.9892 1.31296H4.01084Z" fill="#FFA800"/>
<path d="M12 18.1577C10.3549 18.1577 8.80926 17.517 7.64613 16.3539C6.48299 15.1907 5.84229 13.6442 5.84229 12C5.84229 10.3558 6.48299 8.80926 7.64613 7.64613C8.80926 6.48299 10.3558 5.84229 12 5.84229C13.6442 5.84229 15.1907 6.48299 16.3539 7.64613C17.517 8.80926 18.1577 10.3558 18.1577 12C18.1577 13.6442 17.517 15.1907 16.3539 16.3539C15.1907 17.517 13.6442 18.1577 12 18.1577ZM12 7.15525C9.32873 7.15525 7.15525 9.32873 7.15525 12C7.15525 14.6713 9.32873 16.8447 12 16.8447C14.6713 16.8447 16.8447 14.6713 16.8447 12C16.8447 9.32873 14.6713 7.15525 12 7.15525Z" fill="#FFA800"/>
<path d="M20.823 3.3347C20.823 3.98723 20.2936 4.51656 19.6411 4.51656C18.9886 4.51656 18.4592 3.98723 18.4592 3.3347C18.4592 2.68216 18.9886 2.15283 19.6411 2.15283C20.2936 2.15283 20.823 2.68216 20.823 3.3347Z" fill="#FFA800"/>
</g>
<defs>
<clipPath id="clip0_1_7501">
<rect width="24" height="24" fill="white"/>
</clipPath>
</defs>
</svg>
