<svg width="18" height="18" viewBox="0 0 18 18" fill="none" xmlns="http://www.w3.org/2000/svg">
<path fill-rule="evenodd" clip-rule="evenodd" d="M15.6667 3.89937V2.875C15.6667 1.42525 14.5475 0.25 13.1667 0.25H3.16675C1.78604 0.25 0.666748 1.42525 0.666748 2.875V15.125C0.666748 16.5747 1.78604 17.75 3.16675 17.75H14.8334C16.2141 17.75 17.3334 16.5747 17.3334 15.125V6.375C17.3334 5.23206 16.6377 4.25972 15.6667 3.89937ZM2.33341 2.875C2.33341 2.39175 2.70651 2 3.16675 2H13.1667C13.627 2 14.0001 2.39175 14.0001 2.875V3.75H3.16675C2.70651 3.75 2.33341 3.35825 2.33341 2.875ZM2.33341 5.35063C2.59406 5.44736 2.87455 5.5 3.16675 5.5H14.8334C15.2937 5.5 15.6667 5.89175 15.6667 6.375V8.125H13.1667C11.786 8.125 10.6667 9.30025 10.6667 10.75C10.6667 12.1997 11.786 13.375 13.1667 13.375H15.6667V15.125C15.6667 15.6082 15.2937 16 14.8334 16H3.16675C2.70651 16 2.33341 15.6082 2.33341 15.125V5.35063ZM13.1667 9.875H15.6667V11.625H13.1667C12.7065 11.625 12.3334 11.2332 12.3334 10.75C12.3334 10.2668 12.7065 9.875 13.1667 9.875Z" fill="#D1D3D4"/>
</svg>
