<svg width="9" height="9" viewBox="0 0 9 9" fill="none" xmlns="http://www.w3.org/2000/svg">
<path d="M2.3931 4.18261V2.62618C2.3931 2.11019 2.59808 1.61533 2.96294 1.25047C3.32779 0.885615 3.82265 0.680639 4.33864 0.680639C4.85463 0.680639 5.34948 0.885615 5.71434 1.25047C6.0792 1.61533 6.28418 2.11019 6.28418 2.62618V4.18261M1.61489 4.18261H7.06239C7.49219 4.18261 7.84061 4.53103 7.84061 4.96082V7.68458C7.84061 8.11437 7.49219 8.46279 7.06239 8.46279H1.61489C1.18509 8.46279 0.83667 8.11437 0.83667 7.68458V4.96082C0.83667 4.53103 1.18509 4.18261 1.61489 4.18261Z" stroke="#020246" stroke-width="0.778215" stroke-linecap="round" stroke-linejoin="round"/>
</svg>
