<svg width="22" height="22" viewBox="0 0 22 22" fill="none" xmlns="http://www.w3.org/2000/svg">
<path d="M14.6668 5.8055V4.88883C14.6668 2.86379 13.0252 1.22217 11.0002 1.22217V1.22217C8.97512 1.22217 7.3335 2.86379 7.3335 4.88883V5.8055" stroke="white" stroke-linecap="round"/>
<path d="M3.57002 7.35551L3.20669 7.01201L3.20669 7.01201L3.57002 7.35551ZM3.84336 18.9145L4.20669 18.571H4.20669L3.84336 18.9145ZM4.00201 19.0731L3.65851 19.4365L3.65851 19.4365L4.00201 19.0731ZM17.998 19.0731L18.3415 19.4365L17.998 19.0731ZM18.1566 18.9145L18.52 19.258L18.1566 18.9145ZM18.43 7.35551L18.7933 7.01201L18.7933 7.01201L18.43 7.35551ZM18.311 7.23652L17.9675 7.59985L17.9675 7.59986L18.311 7.23652ZM3.68901 7.23652L4.03251 7.59985L4.03251 7.59985L3.68901 7.23652ZM12 15.3957L11.8181 14.93L11.5 15.0542V15.3957H12ZM12 17.4165V17.9165H12.5V17.4165H12ZM10 17.4165H9.5V17.9165H10V17.4165ZM10 15.3957H10.5V15.0542L10.1819 14.93L10 15.3957ZM3.25 12.3094C3.25 10.9336 3.25099 9.95028 3.34834 9.20045C3.44396 8.46398 3.62494 8.02523 3.93335 7.69901L3.20669 7.01201C2.69508 7.55316 2.46605 8.22918 2.35666 9.0717C2.24901 9.90088 2.25 10.9608 2.25 12.3094H3.25ZM4.20669 18.571C3.76161 18.1002 3.51229 17.4757 3.38251 16.476C3.25099 15.463 3.25 14.1392 3.25 12.3094H2.25C2.25 14.112 2.24901 15.5124 2.39083 16.6048C2.53439 17.7105 2.83175 18.5723 3.48003 19.258L4.20669 18.571ZM4.34551 18.7098C4.29795 18.6648 4.25166 18.6186 4.20669 18.571L3.48003 19.258C3.53784 19.3191 3.59736 19.3787 3.65851 19.4365L4.34551 18.7098ZM10.6071 19.6665C8.77734 19.6665 7.45347 19.6655 6.44047 19.534C5.44083 19.4042 4.81629 19.1549 4.34551 18.7098L3.65851 19.4365C4.34422 20.0848 5.20603 20.3821 6.31172 20.5257C7.40406 20.6675 8.80452 20.6665 10.6071 20.6665V19.6665ZM11.3929 19.6665H10.6071V20.6665H11.3929V19.6665ZM17.6545 18.7098C17.1837 19.1549 16.5592 19.4042 15.5595 19.534C14.5465 19.6655 13.2227 19.6665 11.3929 19.6665V20.6665C13.1955 20.6665 14.5959 20.6675 15.6883 20.5257C16.794 20.3821 17.6558 20.0848 18.3415 19.4365L17.6545 18.7098ZM17.7933 18.571C17.7483 18.6186 17.7021 18.6648 17.6545 18.7098L18.3415 19.4365C18.4026 19.3787 18.4622 19.3191 18.52 19.258L17.7933 18.571ZM18.75 12.3094C18.75 14.1392 18.749 15.463 18.6175 16.476C18.4877 17.4757 18.2384 18.1002 17.7933 18.571L18.52 19.258C19.1682 18.5723 19.4656 17.7105 19.6092 16.6048C19.751 15.5124 19.75 14.112 19.75 12.3094H18.75ZM18.0667 7.69901C18.3751 8.02523 18.556 8.46398 18.6517 9.20045C18.749 9.95028 18.75 10.9336 18.75 12.3094H19.75C19.75 10.9608 19.751 9.90088 19.6433 9.0717C19.5339 8.22918 19.3049 7.55316 18.7933 7.01201L18.0667 7.69901ZM17.9675 7.59986C18.0015 7.63197 18.0345 7.66504 18.0667 7.69902L18.7933 7.01201C18.7483 6.96445 18.7021 6.91816 18.6545 6.87319L17.9675 7.59986ZM13.3571 6.9165C14.7329 6.9165 15.7162 6.91749 16.4661 7.01484C17.2025 7.11046 17.6413 7.29144 17.9675 7.59985L18.6545 6.87319C18.1133 6.36159 17.4373 6.13255 16.5948 6.02317C15.7656 5.91551 14.7057 5.9165 13.3571 5.9165V6.9165ZM8.64286 6.9165H13.3571V5.9165H8.64286V6.9165ZM4.03251 7.59985C4.35873 7.29144 4.79747 7.11046 5.53395 7.01484C6.28378 6.91749 7.26711 6.9165 8.64286 6.9165V5.9165C7.29429 5.9165 6.23437 5.91551 5.4052 6.02317C4.56267 6.13255 3.88665 6.36159 3.34551 6.87319L4.03251 7.59985ZM3.93335 7.69901C3.96547 7.66504 3.99853 7.63197 4.03251 7.59985L3.34551 6.87319C3.29795 6.91816 3.25166 6.96445 3.20669 7.01201L3.93335 7.69901ZM11.25 12.8332C11.25 12.9712 11.1381 13.0832 11 13.0832V14.0832C11.6904 14.0832 12.25 13.5235 12.25 12.8332H11.25ZM11 12.5832C11.1381 12.5832 11.25 12.6951 11.25 12.8332H12.25C12.25 12.1428 11.6904 11.5832 11 11.5832V12.5832ZM10.75 12.8332C10.75 12.6951 10.8619 12.5832 11 12.5832V11.5832C10.3096 11.5832 9.75 12.1428 9.75 12.8332H10.75ZM11 13.0832C10.8619 13.0832 10.75 12.9712 10.75 12.8332H9.75C9.75 13.5235 10.3096 14.0832 11 14.0832V13.0832ZM12.1819 15.8614C13.3916 15.389 14.25 14.2119 14.25 12.8332H13.25C13.25 13.7864 12.6571 14.6023 11.8181 14.93L12.1819 15.8614ZM12.5 17.4165V15.3957H11.5V17.4165H12.5ZM10 17.9165H12V16.9165H10V17.9165ZM9.5 15.3957V17.4165H10.5V15.3957H9.5ZM7.75 12.8332C7.75 14.2119 8.60839 15.389 9.81811 15.8614L10.1819 14.93C9.34293 14.6023 8.75 13.7864 8.75 12.8332H7.75ZM11 9.58317C9.20507 9.58317 7.75 11.0382 7.75 12.8332H8.75C8.75 11.5905 9.75736 10.5832 11 10.5832V9.58317ZM14.25 12.8332C14.25 11.0382 12.7949 9.58317 11 9.58317V10.5832C12.2426 10.5832 13.25 11.5905 13.25 12.8332H14.25Z" fill="white"/>
</svg>
