<svg width="84" height="21" viewBox="0 0 84 21" fill="none" xmlns="http://www.w3.org/2000/svg">
<g clip-path="url(#clip0_1_6312)">
<path d="M51.5014 13.8645C51.4336 10.0479 48.2695 6.97559 44.368 6.97559C40.4666 6.97559 37.3024 10.0502 37.2346 13.8645H37.2278V21H39.9758V13.9867C39.9758 11.6052 41.9412 9.67251 44.368 9.67251C46.7948 9.67251 48.7603 11.603 48.7603 13.9867V21H51.5082V13.8645H51.5014Z" fill="#767576"/>
<path d="M35.242 6.97314H32.494V20.9976H35.242V6.97314Z" fill="#767576"/>
<path d="M33.8669 5.83803C34.6251 5.83803 35.2397 5.23431 35.2397 4.48957C35.2397 3.74484 34.6251 3.14111 33.8669 3.14111C33.1087 3.14111 32.494 3.74484 32.494 4.48957C32.494 5.23431 33.1087 5.83803 33.8669 5.83803Z" fill="#767576"/>
<path d="M23.4041 6.97314C19.462 6.97314 16.2639 10.1121 16.2639 13.9865C16.2639 17.8608 19.4597 20.9998 23.4041 20.9998C27.3486 20.9998 30.5444 17.8608 30.5444 13.9865C30.5444 10.1121 27.3486 6.97314 23.4041 6.97314ZM23.4041 18.2984C20.9796 18.2984 19.0119 16.3679 19.0119 13.9843C19.0119 11.6006 20.9773 9.67007 23.4041 9.67007C25.831 9.67007 27.7964 11.6006 27.7964 13.9843C27.7964 16.3679 25.831 18.2984 23.4041 18.2984Z" fill="#FFA800"/>
<path d="M76.862 6.97314C72.9199 6.97314 69.7218 10.1121 69.7218 13.9865C69.7218 17.8608 72.9176 20.9998 76.862 20.9998C80.8065 20.9998 84.0023 17.8608 84.0023 13.9865C84.0023 10.1121 80.8065 6.97314 76.862 6.97314ZM76.862 18.2984C74.4375 18.2984 72.4698 16.3679 72.4698 13.9843C72.4698 11.6006 74.4352 9.67007 76.862 9.67007C79.2888 9.67007 81.2543 11.6006 81.2543 13.9843C81.2543 16.3679 79.2888 18.2984 76.862 18.2984Z" fill="#FFA800"/>
<path d="M7.14023 6.97334C5.48239 6.97334 3.96026 7.53316 2.74798 8.46398V0L0 0L0 14.0111C0.0135703 17.8721 3.20258 20.9978 7.13796 20.9978C11.0733 20.9978 14.2782 17.8588 14.2782 13.9844C14.2782 10.1101 11.0824 6.97112 7.13796 6.97112L7.14023 6.97334ZM7.14023 18.2986C4.71567 18.2986 2.74798 16.3681 2.74798 13.9844C2.74798 11.6008 4.71341 9.67026 7.14023 9.67026C9.56704 9.67026 11.5325 11.6008 11.5325 13.9844C11.5325 16.3681 9.56704 18.2986 7.14023 18.2986Z" fill="#FFA800"/>
<path d="M53.4556 13.9867C53.4556 17.8588 56.6514 21 60.5959 21C64.5403 21 67.7203 17.8743 67.7338 14.0133V0L64.9858 0V8.4662C63.7736 7.53539 62.2514 6.97556 60.5936 6.97556C56.6514 6.97556 53.4534 10.1146 53.4534 13.9889L53.4556 13.9867ZM56.2036 13.9867C56.2036 11.6052 58.169 9.67248 60.5959 9.67248C63.0204 9.67248 64.9881 11.603 64.9881 13.9867C64.9881 16.3681 63.0227 18.3009 60.5959 18.3009C58.1713 18.3009 56.2036 16.3704 56.2036 13.9867Z" fill="#FFA800"/>
</g>
<defs>
<clipPath id="clip0_1_6312">
<rect width="84" height="21" fill="white"/>
</clipPath>
</defs>
</svg>
