<svg width="32" height="20" viewBox="0 0 32 20" fill="none" xmlns="http://www.w3.org/2000/svg">
<g clip-path="url(#clip0_1_6535)">
<path d="M11.6624 2.13964H20.3061V17.8676H11.6624V2.13964Z" fill="#FF5F00"/>
<path d="M12.2111 10.0037C12.2111 6.80812 13.6929 3.97369 15.9704 2.13964C14.2966 0.805846 12.1837 2.28882e-05 9.87875 2.28882e-05C4.41787 2.28882e-05 0 4.47382 0 10.0037C0 15.5334 4.41787 20.0074 9.87862 20.0074C12.1836 20.0074 14.2965 19.2015 15.9704 17.8676C13.6929 16.0614 12.2111 13.1993 12.2111 10.0037Z" fill="#EB001B"/>
<path d="M31.9683 10.0037C31.9683 15.5334 27.5504 20.0074 22.0897 20.0074C19.7847 20.0074 17.6718 19.2015 15.9979 17.8676C18.3029 16.0337 19.7573 13.1993 19.7573 10.0037C19.7573 6.80812 18.2754 3.97369 15.9979 2.13964C17.6717 0.805846 19.7847 2.28882e-05 22.0897 2.28882e-05C27.5504 2.28882e-05 31.9684 4.50167 31.9684 10.0037H31.9683Z" fill="#FFA800"/>
</g>
<defs>
<clipPath id="clip0_1_6535">
<rect width="32" height="20" fill="white"/>
</clipPath>
</defs>
</svg>
