<svg width="6" height="27" viewBox="0 0 6 27" fill="none" xmlns="http://www.w3.org/2000/svg">
<path d="M3.17962 14.909C3.83751 14.909 4.37083 14.2781 4.37083 13.5C4.37083 12.7219 3.83751 12.0911 3.17962 12.0911C2.52173 12.0911 1.9884 12.7219 1.9884 13.5C1.9884 14.2781 2.52173 14.909 3.17962 14.909Z" stroke="white" stroke-width="2.5" stroke-linecap="round" stroke-linejoin="round"/>
<path d="M3.17962 5.0464C3.83751 5.0464 4.37083 4.4156 4.37083 3.63746C4.37083 2.85932 3.83751 2.22852 3.17962 2.22852C2.52173 2.22852 1.9884 2.85932 1.9884 3.63746C1.9884 4.4156 2.52173 5.0464 3.17962 5.0464Z" stroke="white" stroke-width="2.5" stroke-linecap="round" stroke-linejoin="round"/>
<path d="M3.17962 24.7715C3.83751 24.7715 4.37083 24.1407 4.37083 23.3626C4.37083 22.5844 3.83751 21.9536 3.17962 21.9536C2.52173 21.9536 1.9884 22.5844 1.9884 23.3626C1.9884 24.1407 2.52173 24.7715 3.17962 24.7715Z" stroke="white" stroke-width="2.5" stroke-linecap="round" stroke-linejoin="round"/>
</svg>
