<svg width="80" height="80" viewBox="0 0 80 80" fill="none" xmlns="http://www.w3.org/2000/svg">
<path fill-rule="evenodd" clip-rule="evenodd" d="M26.6666 40.02C26.6666 32.9961 32.28 26.6666 40.0266 26.6666C47.6 26.6666 53.3333 32.8759 53.3333 39.9799C53.3333 48.219 46.6133 53.3333 40 53.3333C37.8133 53.3333 35.3866 52.7457 33.44 51.5974C32.76 51.1834 32.1866 50.8763 31.4533 51.1166L28.76 51.9178C28.08 52.1315 27.4666 51.5974 27.6666 50.8763L28.56 47.8851C28.7066 47.4712 28.68 47.0305 28.4666 46.6833C27.32 44.5735 26.6666 42.2634 26.6666 40.02ZM38.2666 40.02C38.2666 40.9681 39.0266 41.7292 39.9733 41.7426C40.92 41.7426 41.68 40.9681 41.68 40.0333C41.68 39.0853 40.92 38.3241 39.9733 38.3241C39.04 38.3108 38.2666 39.0853 38.2666 40.02ZM44.4133 40.0333C44.4133 40.9681 45.1733 41.7426 46.12 41.7426C47.0666 41.7426 47.8266 40.9681 47.8266 40.0333C47.8266 39.0853 47.0666 38.3241 46.12 38.3241C45.1733 38.3241 44.4133 39.0853 44.4133 40.0333ZM33.8266 41.7426C32.8933 41.7426 32.12 40.9681 32.12 40.0333C32.12 39.0853 32.88 38.3241 33.8266 38.3241C34.7733 38.3241 35.5333 39.0853 35.5333 40.0333C35.5333 40.9681 34.7733 41.7292 33.8266 41.7426Z" fill="url(#paint0_linear_1_6743)"/>
<rect x="1" y="1" width="78" height="78" rx="39" stroke="#FFA800" stroke-width="2"/>
<defs>
<linearGradient id="paint0_linear_1_6743" x1="53.3333" y1="53.3333" x2="21.6024" y2="44.1332" gradientUnits="userSpaceOnUse">
<stop stop-color="#FFA800"/>
</linearGradient>
</defs>
</svg>
