<svg width="18" height="18" viewBox="0 0 18 18" fill="none" xmlns="http://www.w3.org/2000/svg">
<path d="M4.21209 2.52269C5.10804 1.86231 6.12713 1.39762 7.20332 1.1526C6.9375 1.52587 6.70878 1.92559 6.52112 2.3462C6.14264 3.1945 5.93898 4.11037 5.92229 5.03912C5.9056 5.96788 6.07622 6.89047 6.42397 7.75183C6.77172 8.61318 7.28947 9.39563 7.9463 10.0525C8.60314 10.7093 9.38559 11.227 10.2469 11.5748C11.1083 11.9226 12.0309 12.0932 12.9596 12.0765C13.8884 12.0598 14.8043 11.8561 15.6526 11.4777C16.0732 11.29 16.4729 11.0613 16.8462 10.7954C16.6011 11.8716 16.1364 12.8907 15.4761 13.7867C14.5558 15.0352 13.2946 15.9916 11.8441 16.5408C10.3935 17.09 8.81518 17.2088 7.29875 16.8829C5.78232 16.5569 4.39223 15.8001 3.29546 14.7033C2.19868 13.6065 1.44187 12.2165 1.11592 10.7C0.789967 9.18358 0.908739 7.60529 1.45797 6.15471C2.0072 4.70414 2.96353 3.44297 4.21209 2.52269Z" stroke="white"/>
</svg>
