<svg width="21" height="18" viewBox="0 0 21 18" fill="none" xmlns="http://www.w3.org/2000/svg">
<path d="M17.1098 0C16.3315 0 15.5852 0.316071 15.0349 0.87868C14.4846 1.44129 14.1754 2.20435 14.1754 3V5.84L5.37227 0.47C4.88578 0.173178 4.3298 0.0164607 3.76326 0.0164607C3.19672 0.0164607 2.64073 0.173178 2.15424 0.47C1.64472 0.766028 1.22132 1.1952 0.927422 1.71357C0.63352 2.23193 0.479675 2.82085 0.481646 3.42L0.481646 14.58C0.471877 15.1886 0.623034 15.7886 0.919154 16.3166C1.21527 16.8447 1.64537 17.2811 2.16402 17.58C2.64424 17.8578 3.18706 18.0025 3.7388 18C4.31468 17.9961 4.87891 17.8337 5.37227 17.53L14.1754 12.16V15C14.1754 15.7956 14.4846 16.5587 15.0349 17.1213C15.5852 17.6839 16.3315 18 17.1098 18C17.888 18 18.6344 17.6839 19.1847 17.1213C19.735 16.5587 20.0441 15.7956 20.0441 15V3C20.0441 2.20435 19.735 1.44129 19.1847 0.87868C18.6344 0.316071 17.888 0 17.1098 0ZM13.5103 10.23L4.39415 15.81C4.20556 15.9275 3.98898 15.9896 3.76815 15.9896C3.54731 15.9896 3.33073 15.9275 3.14215 15.81C2.92779 15.6882 2.74935 15.5098 2.62547 15.2935C2.50159 15.0771 2.43681 14.8307 2.4379 14.58V3.42C2.4323 3.16692 2.49393 2.91703 2.61622 2.69691C2.73851 2.4768 2.91688 2.2947 3.13237 2.17C3.31724 2.06192 3.52586 2.00344 3.7388 2C3.97059 1.99747 4.19816 2.06344 4.39415 2.19L13.5201 7.77C13.7242 7.9003 13.8926 8.08157 14.0093 8.29675C14.126 8.51193 14.1873 8.75394 14.1873 9C14.1873 9.24606 14.126 9.48807 14.0093 9.70325C13.8926 9.91843 13.7242 10.0997 13.5201 10.23H13.5103ZM18.0879 15C18.0879 15.2652 17.9848 15.5196 17.8014 15.7071C17.618 15.8946 17.3692 16 17.1098 16C16.8504 16 16.6016 15.8946 16.4181 15.7071C16.2347 15.5196 16.1316 15.2652 16.1316 15V3C16.1316 2.73478 16.2347 2.48043 16.4181 2.29289C16.6016 2.10536 16.8504 2 17.1098 2C17.3692 2 17.618 2.10536 17.8014 2.29289C17.9848 2.48043 18.0879 2.73478 18.0879 3V15Z" fill="#EAF4F4"/>
</svg>
