<svg width="97" height="38" viewBox="0 0 97 38" fill="none" xmlns="http://www.w3.org/2000/svg">
<path d="M78.8817 20.0298C77.3672 20.0298 76.1308 18.7934 76.1308 17.2788C76.1308 15.7487 77.3672 14.5278 78.8817 14.5278C80.3963 14.5278 81.6327 15.7642 81.6327 17.2788C81.6482 18.7934 80.4118 20.0298 78.8817 20.0298ZM78.8817 11.9005C75.9144 11.9005 73.5034 14.3114 73.5034 17.2788C73.5034 20.2462 75.9144 22.6571 78.8817 22.6571C81.8491 22.6571 84.2601 20.2462 84.2601 17.2788C84.2601 14.296 81.8491 11.9005 78.8817 11.9005Z" fill="white"/>
<path d="M54.185 20.0298C52.6704 20.0298 51.434 18.7934 51.434 17.2788C51.434 15.7487 52.6704 14.5278 54.185 14.5278C55.6996 14.5278 56.936 15.7642 56.936 17.2788C56.936 18.7934 55.6996 20.0298 54.185 20.0298ZM54.185 11.9005C51.2176 11.9005 48.8066 14.3114 48.8066 17.2788C48.8066 20.2462 51.2176 22.6571 54.185 22.6571C57.1523 22.6571 59.5633 20.2462 59.5633 17.2788C59.5479 14.296 57.1523 11.9005 54.185 11.9005Z" fill="white"/>
<path d="M73.1639 20.1843C72.8239 20.277 72.2984 20.3852 72.113 20.3852C71.1857 20.3852 71.0002 20.0607 71.0002 19.1952V14.2187H73.1948V12.1477H71.0002V9.21126H68.5274L68.002 12.1477H66.2864H66.1474C64.741 12.1477 63.6746 13.0132 62.9945 14.3578L62.1445 12.1477H60.3672V22.4562H63.3964V17.9742C63.3964 15.7178 64.7409 14.265 66.3174 14.2187H67.971V19.3497C67.971 21.7607 69.2074 22.6571 71.2166 22.6571C72.2521 22.6571 73.0557 22.4407 73.5348 22.2862L73.1639 20.1843Z" fill="white"/>
<path d="M87.9385 15.393V22.456H84.9866V12.132H86.7794L87.3821 13.7084" fill="white"/>
<path d="M87.3674 13.7241C88.2638 12.6887 89.4848 11.9005 90.9221 11.9005C93.3794 11.9005 94.384 13.8632 94.384 15.6715V22.4562H91.3548V15.7642C91.3548 14.8833 90.613 14.4042 89.8248 14.4042C88.9748 14.4042 88.4338 14.8987 87.9547 15.4087" fill="white"/>
<path d="M37.0449 8.40754H40.4296L45.0661 17.2323V8.40754H47.8634V22.4561H44.8033L39.8423 12.7349V22.4561H37.0449V8.40754Z" fill="white"/>
<path d="M94.3843 12.1475V12.3484H94.6625V13.3221H94.8943V12.3484H95.1879V12.1475H94.3843Z" fill="black"/>
<path d="M96.0684 12.1475L95.8675 12.9203L95.6511 12.1475H95.342V13.3221H95.543V12.3948L95.7902 13.3221H95.9448L96.1921 12.3948V13.3221H96.3775V12.1475H96.0684Z" fill="black"/>
<path d="M16.1041 10.0767C13.1677 10.0767 10.4012 11.2204 8.31479 13.3068C6.22836 15.3932 5.08469 18.1597 5.08469 21.0961C5.08469 24.0326 6.22836 26.799 8.31479 28.8854C10.4012 30.9719 13.1677 32.1155 16.1041 32.1155C19.0405 32.1155 21.807 30.9719 23.8934 28.8854C25.9644 26.799 27.1081 24.0326 27.1235 21.0961C27.1235 18.1597 25.9798 15.3932 23.8934 13.3068C21.807 11.2358 19.0405 10.0767 16.1041 10.0767ZM16.1041 37.2002C7.23293 37.2002 0 29.9673 0 21.0961C0 12.2095 7.23293 4.99202 16.1041 4.99202C24.9753 4.99202 32.2082 12.2095 32.2082 21.0961C32.2082 29.9673 24.9753 37.2002 16.1041 37.2002Z" fill="#FFC20E"/>
<path d="M34.8974 2.50407H33.6455V3.75593H34.8974V2.50407Z" fill="white"/>
<path d="M34.8974 2.28882e-05H33.6455V1.25188H34.8974V2.28882e-05Z" fill="white"/>
<path d="M31.2969 3.75548H30.1223V4.97642H31.2969V3.75548Z" fill="white"/>
<path d="M28.9779 6.16665H27.7878V7.34123H28.9779V6.16665Z" fill="white"/>
<path d="M32.5944 4.97654H31.2808V6.15112H32.5944V4.97654Z" fill="white"/>
<path d="M27.7884 5.03846H26.6138V6.16666H27.7884V5.03846Z" fill="white"/>
<path d="M31.2969 6.16665H30.1223V7.34123H31.2969V6.16665Z" fill="white"/>
<path d="M33.6461 1.26752H32.4097V2.51939H33.6461V1.26752Z" fill="white"/>
<path d="M32.4097 2.50407H30.1223V3.75593H32.4097V2.50407Z" fill="white"/>
<path d="M30.1217 3.75548H28.978V6.16645H30.1217V3.75548Z" fill="white"/>
<path d="M28.9785 7.34127V8.51585H27.7884V7.34127H25.8256V8.19129H24.7747V9.24223H25.9493V10.4168H24.7747V9.24223H23.5229V11.0814H22.3483V12.256H21.5601V13.4305H20.6946C19.7209 14.8678 17.31 19.3498 16.5681 21.1735C13.9253 17.4952 11.8698 16.0424 10.2625 15.517C9.397 15.2542 8.34606 16.197 9.78337 17.6961C13.1062 21.3589 14.1571 24.3727 15.1617 26.7991C15.7026 28.0664 18.0982 28.2673 18.5773 26.9691C19.5973 24.2336 21.081 21.1426 22.8428 18.6234V17.3097H23.7856V16.1352H24.7747V14.7597H25.9493V13.446H24.7593V12.2405H25.9493V13.446H27.1084V12.256H28.0357V10.8186H29.0866V9.82952H30.0912V7.34127H28.9785V7.34127Z" fill="white"/>
<path d="M40.4271 32.8603C40.4271 33.2895 40.2714 33.6242 39.96 33.8644C39.6487 34.1046 39.2262 34.2246 38.6925 34.2246C38.1143 34.2246 37.6695 34.1501 37.3582 34.0011V33.4541C37.5583 33.5386 37.7762 33.6053 38.012 33.6542C38.2477 33.7032 38.4812 33.7276 38.7125 33.7276C39.0905 33.7276 39.3752 33.6565 39.5664 33.5141C39.7577 33.3696 39.8533 33.1694 39.8533 32.9137C39.8533 32.7447 39.8188 32.6068 39.7499 32.5001C39.6832 32.3911 39.5698 32.291 39.4096 32.1998C39.2518 32.1087 39.0105 32.0053 38.6858 31.8896C38.2321 31.7273 37.9074 31.5349 37.7117 31.3125C37.5183 31.0901 37.4215 30.7999 37.4215 30.4419C37.4215 30.0661 37.5627 29.767 37.8452 29.5446C38.1276 29.3222 38.5012 29.211 38.966 29.211C39.4508 29.211 39.8967 29.3 40.3036 29.4779L40.1268 29.9716C39.7243 29.8025 39.3329 29.718 38.9526 29.718C38.6524 29.718 38.4178 29.7825 38.2488 29.9115C38.0798 30.0405 37.9953 30.2195 37.9953 30.4486C37.9953 30.6176 38.0264 30.7566 38.0887 30.8655C38.151 30.9723 38.2555 31.0712 38.4022 31.1624C38.5512 31.2514 38.7781 31.3503 39.0827 31.4593C39.5942 31.6417 39.9456 31.8374 40.1368 32.0464C40.3303 32.2554 40.4271 32.5267 40.4271 32.8603Z" fill="white"/>
<path d="M42.8855 34.2246C42.3451 34.2246 41.9181 34.0601 41.6046 33.731C41.2932 33.4018 41.1376 32.9448 41.1376 32.36C41.1376 31.7706 41.2821 31.3025 41.5712 30.9556C41.8625 30.6087 42.2528 30.4352 42.7421 30.4352C43.2002 30.4352 43.5627 30.5864 43.8295 30.8889C44.0964 31.1891 44.2298 31.5861 44.2298 32.0798V32.43H41.7113C41.7224 32.8592 41.8303 33.185 42.0349 33.4074C42.2417 33.6298 42.5319 33.741 42.9055 33.741C43.2991 33.741 43.6883 33.6587 44.073 33.4941V33.9878C43.8773 34.0723 43.6916 34.1324 43.516 34.1679C43.3425 34.2057 43.1323 34.2246 42.8855 34.2246ZM42.7354 30.8989C42.4418 30.8989 42.2072 30.9945 42.0315 31.1858C41.8581 31.377 41.7558 31.6417 41.7247 31.9797H43.636C43.636 31.6305 43.5582 31.3637 43.4025 31.1791C43.2469 30.9923 43.0245 30.8989 42.7354 30.8989Z" fill="white"/>
<path d="M46.6382 34.2246C46.109 34.2246 45.6987 34.0623 45.4073 33.7376C45.1182 33.4107 44.9737 32.9493 44.9737 32.3533C44.9737 31.7417 45.1205 31.2692 45.414 30.9356C45.7098 30.602 46.1301 30.4352 46.6749 30.4352C46.8506 30.4352 47.0263 30.4541 47.202 30.4919C47.3777 30.5297 47.5155 30.5742 47.6156 30.6254L47.4455 31.0957C47.3232 31.0468 47.1897 31.0068 47.0452 30.9756C46.9006 30.9423 46.7728 30.9256 46.6616 30.9256C45.9188 30.9256 45.5474 31.3993 45.5474 32.3466C45.5474 32.7958 45.6375 33.1405 45.8176 33.3807C46 33.6209 46.2691 33.741 46.6249 33.741C46.9296 33.741 47.242 33.6754 47.5622 33.5441V34.0345C47.3176 34.1613 47.0096 34.2246 46.6382 34.2246Z" fill="white"/>
<path d="M48.9532 30.5019V32.8737C48.9532 33.1717 49.0211 33.394 49.1567 33.5408C49.2924 33.6876 49.5048 33.761 49.7939 33.761C50.1764 33.761 50.4554 33.6565 50.6311 33.4474C50.809 33.2384 50.898 32.897 50.898 32.4233V30.5019H51.4517V34.1579H50.9947L50.9147 33.6676H50.8846C50.7712 33.8477 50.6133 33.9856 50.411 34.0812C50.2108 34.1768 49.9818 34.2246 49.7238 34.2246C49.279 34.2246 48.9455 34.119 48.7231 33.9077C48.5029 33.6965 48.3928 33.3585 48.3928 32.8937V30.5019H48.9532Z" fill="white"/>
<path d="M54.2971 30.4352C54.4595 30.4352 54.6051 30.4486 54.7341 30.4753L54.6574 30.989C54.5062 30.9556 54.3727 30.9389 54.2571 30.9389C53.9613 30.9389 53.7078 31.059 53.4965 31.2992C53.2875 31.5394 53.183 31.8385 53.183 32.1965V34.1579H52.6292V30.5019H53.0862L53.1496 31.1791H53.1763C53.312 30.9411 53.4754 30.7577 53.6667 30.6287C53.8579 30.4997 54.0681 30.4352 54.2971 30.4352Z" fill="white"/>
<path d="M55.9717 34.1579H55.4179V30.5019H55.9717V34.1579ZM55.3712 29.5112C55.3712 29.3845 55.4024 29.2922 55.4646 29.2344C55.5269 29.1743 55.6047 29.1443 55.6981 29.1443C55.7871 29.1443 55.8638 29.1743 55.9283 29.2344C55.9928 29.2944 56.025 29.3867 56.025 29.5112C56.025 29.6358 55.9928 29.7292 55.9283 29.7914C55.8638 29.8515 55.7871 29.8815 55.6981 29.8815C55.6047 29.8815 55.5269 29.8515 55.4646 29.7914C55.4024 29.7292 55.3712 29.6358 55.3712 29.5112Z" fill="white"/>
<path d="M58.3267 33.7676C58.4246 33.7676 58.5191 33.761 58.6103 33.7476C58.7014 33.7321 58.7737 33.7165 58.8271 33.7009V34.1246C58.767 34.1535 58.6781 34.1768 58.5602 34.1946C58.4446 34.2146 58.3401 34.2246 58.2467 34.2246C57.5395 34.2246 57.1859 33.8522 57.1859 33.1072V30.9323H56.6622V30.6654L57.1859 30.4352L57.4194 29.6547H57.7396V30.5019H58.8004V30.9323H57.7396V33.0838C57.7396 33.304 57.7919 33.473 57.8964 33.5908C58.0009 33.7087 58.1444 33.7676 58.3267 33.7676Z" fill="white"/>
<path d="M58.9805 30.5019H59.5743L60.3749 32.5868C60.5506 33.0627 60.6595 33.4063 60.7018 33.6175H60.7285C60.7574 33.5041 60.8174 33.3106 60.9086 33.0371C61.002 32.7614 61.3044 31.9163 61.8159 30.5019H62.4097L60.8385 34.665C60.6829 35.0764 60.5005 35.3677 60.2915 35.5389C60.0847 35.7124 59.83 35.7991 59.5276 35.7991C59.3586 35.7991 59.1918 35.7802 59.0272 35.7424V35.2988C59.1495 35.3254 59.2863 35.3388 59.4375 35.3388C59.8178 35.3388 60.0891 35.1253 60.2515 34.6983L60.4549 34.1779L58.9805 30.5019Z" fill="white"/>
<path d="M66.9497 29.718C66.4137 29.718 65.9901 29.8971 65.6787 30.2551C65.3696 30.6109 65.2151 31.099 65.2151 31.7195C65.2151 32.3577 65.3641 32.8514 65.6621 33.2006C65.9623 33.5475 66.3892 33.7209 66.943 33.7209C67.2832 33.7209 67.6713 33.6598 68.1072 33.5375V34.0345C67.7691 34.1613 67.3522 34.2246 66.8563 34.2246C66.138 34.2246 65.5831 34.0067 65.1917 33.5708C64.8025 33.135 64.608 32.5156 64.608 31.7128C64.608 31.2102 64.7014 30.7699 64.8882 30.3919C65.0772 30.0138 65.3485 29.7225 65.7021 29.5179C66.0579 29.3133 66.476 29.211 66.9563 29.211C67.4678 29.211 67.9148 29.3044 68.2973 29.4912L68.0571 29.9782C67.688 29.8048 67.3188 29.718 66.9497 29.718Z" fill="white"/>
<path d="M71.5897 34.1579V31.7929C71.5897 31.4949 71.5219 31.2725 71.3862 31.1257C71.2506 30.979 71.0382 30.9056 70.7491 30.9056C70.3644 30.9056 70.083 31.0101 69.9051 31.2191C69.7295 31.4282 69.6416 31.7706 69.6416 32.2465V34.1579H69.0879V28.9675H69.6416V30.5386C69.6416 30.7277 69.6327 30.8844 69.6149 31.009H69.6483C69.7572 30.8333 69.9118 30.6954 70.1119 30.5953C70.3143 30.493 70.5445 30.4419 70.8025 30.4419C71.2494 30.4419 71.5841 30.5486 71.8065 30.7621C72.0311 30.9734 72.1434 31.3103 72.1434 31.7729V34.1579H71.5897Z" fill="white"/>
<path d="M74.8287 34.2246C74.2883 34.2246 73.8613 34.0601 73.5478 33.731C73.2364 33.4018 73.0808 32.9448 73.0808 32.36C73.0808 31.7706 73.2253 31.3025 73.5144 30.9556C73.8057 30.6087 74.196 30.4352 74.6853 30.4352C75.1434 30.4352 75.5059 30.5864 75.7727 30.8889C76.0396 31.1891 76.173 31.5861 76.173 32.0798V32.43H73.6545C73.6656 32.8592 73.7735 33.185 73.9781 33.4074C74.1849 33.6298 74.4751 33.741 74.8487 33.741C75.2423 33.741 75.6315 33.6587 76.0162 33.4941V33.9878C75.8205 34.0723 75.6349 34.1324 75.4592 34.1679C75.2857 34.2057 75.0756 34.2246 74.8287 34.2246ZM74.6786 30.8989C74.3851 30.8989 74.1504 30.9945 73.9748 31.1858C73.8013 31.377 73.699 31.6417 73.6679 31.9797H75.5793C75.5793 31.6305 75.5014 31.3637 75.3458 31.1791C75.1901 30.9923 74.9677 30.8989 74.6786 30.8989Z" fill="white"/>
<path d="M78.5814 34.2246C78.0522 34.2246 77.6419 34.0623 77.3505 33.7376C77.0614 33.4107 76.9169 32.9493 76.9169 32.3533C76.9169 31.7417 77.0637 31.2692 77.3572 30.9356C77.653 30.602 78.0733 30.4352 78.6181 30.4352C78.7938 30.4352 78.9695 30.4541 79.1452 30.4919C79.3209 30.5297 79.4587 30.5742 79.5588 30.6254L79.3887 31.0957C79.2664 31.0468 79.1329 31.0068 78.9884 30.9756C78.8438 30.9423 78.716 30.9256 78.6048 30.9256C77.862 30.9256 77.4906 31.3993 77.4906 32.3466C77.4906 32.7958 77.5807 33.1405 77.7608 33.3807C77.9432 33.6209 78.2123 33.741 78.5681 33.741C78.8728 33.741 79.1852 33.6754 79.5054 33.5441V34.0345C79.2608 34.1613 78.9528 34.2246 78.5814 34.2246Z" fill="white"/>
<path d="M80.9231 32.2866C81.0188 32.1509 81.1644 31.973 81.3601 31.7528L82.541 30.5019H83.1981L81.717 32.0597L83.3015 34.1579H82.631L81.3401 32.43L80.9231 32.7903V34.1579H80.3761V28.9675H80.9231V31.7195C80.9231 31.8418 80.9142 32.0308 80.8965 32.2866H80.9231Z" fill="white"/>
<path d="M87.121 32.3266C87.121 32.9226 86.9709 33.3885 86.6706 33.7243C86.3704 34.0579 85.9557 34.2246 85.4264 34.2246C85.0995 34.2246 84.8093 34.1479 84.5558 33.9945C84.3023 33.841 84.1066 33.6209 83.9687 33.334C83.8308 33.0471 83.7619 32.7113 83.7619 32.3266C83.7619 31.7306 83.9109 31.2669 84.2089 30.9356C84.5069 30.602 84.9205 30.4352 85.4498 30.4352C85.9612 30.4352 86.3671 30.6053 86.6673 30.9456C86.9698 31.2858 87.121 31.7462 87.121 32.3266ZM84.3356 32.3266C84.3356 32.7936 84.429 33.1494 84.6158 33.394C84.8026 33.6387 85.0773 33.761 85.4398 33.761C85.8022 33.761 86.0769 33.6398 86.2637 33.3974C86.4527 33.1528 86.5472 32.7958 86.5472 32.3266C86.5472 31.8618 86.4527 31.5093 86.2637 31.2692C86.0769 31.0268 85.8 30.9056 85.4331 30.9056C85.0706 30.9056 84.7971 31.0245 84.6125 31.2625C84.4279 31.5004 84.3356 31.8551 84.3356 32.3266Z" fill="white"/>
<path d="M88.6154 30.5019V32.8737C88.6154 33.1717 88.6832 33.394 88.8189 33.5408C88.9545 33.6876 89.1669 33.761 89.456 33.761C89.8385 33.761 90.1176 33.6565 90.2933 33.4474C90.4712 33.2384 90.5601 32.897 90.5601 32.4233V30.5019H91.1139V34.1579H90.6569L90.5768 33.6676H90.5468C90.4334 33.8477 90.2755 33.9856 90.0731 34.0812C89.873 34.1768 89.6439 34.2246 89.386 34.2246C88.9412 34.2246 88.6076 34.119 88.3852 33.9077C88.1651 33.6965 88.055 33.3585 88.055 32.8937V30.5019H88.6154Z" fill="white"/>
<path d="M93.4723 33.7676C93.5701 33.7676 93.6646 33.761 93.7558 33.7476C93.847 33.7321 93.9192 33.7165 93.9726 33.7009V34.1246C93.9126 34.1535 93.8236 34.1768 93.7058 34.1946C93.5901 34.2146 93.4856 34.2246 93.3922 34.2246C92.685 34.2246 92.3314 33.8522 92.3314 33.1072V30.9323H91.8077V30.6654L92.3314 30.4352L92.5649 29.6547H92.8852V30.5019H93.9459V30.9323H92.8852V33.0838C92.8852 33.304 92.9374 33.473 93.0419 33.5908C93.1465 33.7087 93.2899 33.7676 93.4723 33.7676Z" fill="white"/>
</svg>
