<svg width="22" height="23" viewBox="0 0 22 23" fill="none" xmlns="http://www.w3.org/2000/svg">
<path d="M14.4262 17.3068C14.6976 17.9593 14.8647 18.6507 14.922 19.3548H1.74455C1.80181 18.6507 1.96886 17.9593 2.24029 17.3068C2.57617 16.4993 3.06521 15.7674 3.67912 15.1527C4.29301 14.538 5.01974 14.0525 5.81761 13.7235C6.61546 13.3945 7.46905 13.2284 8.32972 13.2345L8.32972 13.2345L8.33678 13.2345C9.19745 13.2284 10.051 13.3945 10.8489 13.7235C11.6468 14.0525 12.3735 14.538 12.9874 15.1527C13.6013 15.7674 14.0903 16.4993 14.4262 17.3068ZM8.33678 11.3448L8.33678 11.3447L8.3296 11.3448C7.06051 11.354 5.83821 10.8513 4.93187 9.94455C4.02657 9.03889 3.51067 7.80414 3.49954 6.51071C3.52023 5.21977 4.03951 3.99013 4.94333 3.08627C5.84821 2.18136 7.06576 1.67549 8.33264 1.67549C9.59952 1.67549 10.8171 2.18136 11.7219 3.08627C12.6258 3.99014 13.1451 5.21978 13.1657 6.51073C13.1546 7.80396 12.6389 9.03852 11.7338 9.94415C10.8277 10.8508 9.60569 11.3537 8.33678 11.3448ZM15.646 4.38233L16.3095 3.89877C16.5824 4.73828 16.7221 5.61809 16.7221 6.50512C16.7221 7.39024 16.583 8.26816 16.3113 9.10602L15.6458 8.61879C16.0437 7.2356 16.0438 5.76556 15.646 4.38233ZM18.6372 2.20626L19.2868 1.73465C19.9378 3.23569 20.2754 4.86015 20.2754 6.50512C20.2754 8.1501 19.9378 9.77456 19.2868 11.2756L18.6372 10.804C19.2016 9.44438 19.4931 7.98285 19.4931 6.50512C19.4931 5.0274 19.2016 3.56587 18.6372 2.20626Z" stroke="white"/>
</svg>
