<svg width="15" height="16" viewBox="0 0 15 16" fill="none" xmlns="http://www.w3.org/2000/svg">
<path d="M9.36008 2.3406C7.98887 1.55876 6.92376 0.951451 6.05873 0.557474C5.19046 0.162021 4.43678 -0.0613021 3.70391 0.0147681C2.54078 0.135499 1.48192 0.738167 0.791882 1.67612C0.356025 2.26857 0.174548 3.02898 0.0870957 3.97038C-7.07215e-06 4.90801 -3.95467e-06 6.12326 5.62385e-08 7.68616V7.7513C-4.04904e-06 9.3142 -7.24321e-06 10.5295 0.0870953 11.4671C0.174548 12.4085 0.356024 13.1689 0.791882 13.7613C1.48192 14.6993 2.54078 15.302 3.70391 15.4227C4.43677 15.4988 5.19046 15.2754 6.05873 14.88C6.92375 14.486 7.98885 13.8787 9.36005 13.0969L9.41572 13.0651C10.7868 12.2834 11.852 11.6761 12.6301 11.1331C13.4104 10.5887 13.9856 10.0544 14.2872 9.38539C14.7654 8.32465 14.7654 7.11281 14.2872 6.05208C13.9856 5.38309 13.4104 4.84878 12.6301 4.30432C11.852 3.76141 10.7868 3.15409 9.41571 2.37231L9.36008 2.3406Z" fill="white"/>
</svg>
