<svg width="16" height="19" viewBox="0 0 16 19" fill="none" xmlns="http://www.w3.org/2000/svg">
<path d="M1.09238 14.6913L0.503479 14.2269L0.503479 14.2269L1.09238 14.6913ZM2.10998 11.9121L1.35998 11.9025V11.9121H2.10998ZM2.13134 10.2317L2.88134 10.2413V10.2317H2.13134ZM14.9131 14.7048L15.5113 14.2524L15.5113 14.2524L14.9131 14.7048ZM13.9337 11.9121L13.1837 11.902V11.9121H13.9337ZM13.9551 10.315L14.7051 10.325V10.315H13.9551ZM1.68128 15.1557C2.26732 14.4126 2.85998 13.2905 2.85998 11.9121H1.35998C1.35998 12.8529 0.953062 13.6568 0.503479 14.2269L1.68128 15.1557ZM2.85992 11.9216L2.88128 10.2413L1.3814 10.2222L1.36004 11.9025L2.85992 11.9216ZM15.5113 14.2524C15.081 13.6835 14.6837 12.8703 14.6837 11.9121H13.1837C13.1837 13.2891 13.7516 14.4123 14.3149 15.1572L15.5113 14.2524ZM14.6837 11.9221L14.705 10.325L13.2052 10.305L13.1838 11.902L14.6837 11.9221ZM14.7051 10.315C14.7051 6.70661 11.6764 3.82895 8 3.82895V5.32895C10.9014 5.32895 13.2051 7.58753 13.2051 10.315H14.7051ZM14.5567 16.2335C15.1149 16.2335 15.4831 15.854 15.6379 15.5037C15.7906 15.1582 15.8205 14.6612 15.5113 14.2524L14.3149 15.1572C14.2202 15.032 14.254 14.9244 14.2659 14.8974C14.28 14.8655 14.3628 14.7335 14.5567 14.7335V16.2335ZM2.88134 10.2317C2.88134 7.55025 5.1463 5.32895 8 5.32895V3.82895C4.37136 3.82895 1.38134 6.66934 1.38134 10.2317H2.88134ZM1.44418 14.7335C1.64283 14.7335 1.72375 14.8704 1.7356 14.8981C1.74547 14.9211 1.78061 15.0298 1.68128 15.1557L0.503479 14.2269C0.180989 14.6358 0.207576 15.1406 0.356905 15.489C0.508223 15.842 0.87662 16.2335 1.44418 16.2335V14.7335ZM14.5567 14.7335H1.44418V16.2335H14.5567V14.7335ZM10.05 15.4835C10.05 16.3858 9.20951 17.25 8 17.25V18.75C9.88329 18.75 11.55 17.3609 11.55 15.4835H10.05ZM8 17.25C6.79049 17.25 5.95 16.3858 5.95 15.4835H4.45C4.45 17.3609 6.11671 18.75 8 18.75V17.25ZM9.11667 2.78947C9.11667 3.33402 8.64688 3.82895 8 3.82895V5.32895C9.41498 5.32895 10.6167 4.22152 10.6167 2.78947H9.11667ZM8 3.82895C7.35312 3.82895 6.88333 3.33402 6.88333 2.78947H5.38333C5.38333 4.22152 6.58502 5.32895 8 5.32895V3.82895ZM6.88333 2.78947C6.88333 2.24493 7.35312 1.75 8 1.75V0.25C6.58502 0.25 5.38333 1.35742 5.38333 2.78947H6.88333ZM8 1.75C8.64688 1.75 9.11667 2.24493 9.11667 2.78947H10.6167C10.6167 1.35742 9.41498 0.25 8 0.25V1.75Z" fill="white"/>
</svg>
