<svg width="18" height="17" viewBox="0 0 18 17" fill="none" xmlns="http://www.w3.org/2000/svg">
<path d="M6.71887 2.71845L7.61627 1.42882C7.80321 1.16017 8.1098 1 8.43709 1H9.56414C9.89022 1 10.1958 1.15898 10.383 1.426L11.2702 2.69167M6.71887 2.71845C6.4546 3.09547 6.01533 3.28022 5.54909 3.24728M6.71887 2.71845C6.45332 3.09457 6.01533 3.28175 5.54909 3.24728M5.54909 3.24728L3.95715 3.14734C3.6363 3.1272 3.32534 3.26253 3.12142 3.51106L2.4124 4.37518C2.1962 4.63868 2.1291 4.99415 2.23436 5.31833L2.69383 6.73337M2.69383 6.73337C2.76158 6.95305 2.77025 7.1884 2.72176 7.41067M2.69383 6.73337C2.76254 6.95266 2.77089 7.18753 2.72144 7.41295M2.72176 7.41067C2.67263 7.63031 2.56731 7.83771 2.41093 8.00565M2.72176 7.41067L2.72144 7.41295M2.41093 8.00565L1.36575 9.12978C1.13735 9.37542 1.04732 9.71922 1.126 10.0453L1.37282 11.0681C1.45125 11.3931 1.68689 11.6574 2.0008 11.7725L3.43686 12.2988C3.65393 12.3828 3.84145 12.5193 3.98338 12.6913M2.41093 8.00565C2.56827 7.83908 2.67263 7.63236 2.72144 7.41295M3.98338 12.6913C4.12435 12.8638 4.22036 13.072 4.25761 13.2974M3.98338 12.6913C4.12563 12.8638 4.22196 13.0714 4.25761 13.2974M3.98338 12.6913L3.98114 12.6888C3.97182 12.6776 3.96187 12.6658 3.95224 12.6549M4.25761 13.2974L4.50222 14.8C4.55548 15.1272 4.76743 15.4067 5.06811 15.5463L6.08364 16.0178C6.3747 16.1529 6.71294 16.1402 6.993 15.9835L8.34495 15.2271M8.34495 15.2271C8.54692 15.1137 8.77234 15.0568 8.99775 15.0565M8.34495 15.2271C8.4249 15.1816 8.50871 15.1453 8.59477 15.118C8.72546 15.0766 8.8616 15.0562 8.99775 15.0565M8.99775 15.0565C9.11496 15.0567 9.23216 15.0722 9.34647 15.1029C9.45276 15.1313 9.55615 15.1728 9.65409 15.2271M8.99775 15.0565C9.22413 15.0562 9.45083 15.1131 9.65409 15.2271M9.65409 15.2271L11.074 15.9957C11.3552 16.148 11.6924 16.1565 11.981 16.0187L12.9919 15.5359C13.2915 15.3928 13.5006 15.1103 13.5499 14.7819L13.7684 13.3261M13.7684 13.3261C13.804 13.0994 13.8988 12.8896 14.0394 12.7157M13.7684 13.3261C13.8028 13.0989 13.8981 12.8895 14.0394 12.7157M14.0394 12.7157C14.1791 12.5434 14.3644 12.4062 14.5802 12.3214M14.0394 12.7157C14.1788 12.5428 14.3634 12.4052 14.5802 12.3214M14.5802 12.3214L16.0347 11.7513C16.3427 11.6306 16.5711 11.3654 16.6447 11.043L16.8826 10.0015C16.9561 9.67993 16.8662 9.34277 16.6424 9.10041L15.5884 7.95921M15.5884 7.95921C15.4292 7.79068 15.3181 7.58937 15.2641 7.37542M15.5884 7.95921C15.5136 7.8805 15.4494 7.79445 15.397 7.70322C15.3373 7.59962 15.2927 7.48934 15.2641 7.37542M15.2641 7.37542C15.2111 7.163 15.2143 6.9379 15.2814 6.72002L15.7358 5.26363C15.8362 4.94183 15.7677 4.59111 15.5536 4.33072L14.8661 3.49445C14.6598 3.24356 14.3445 3.10848 14.0206 3.13221L12.4496 3.24728M12.4496 3.24728C12.2178 3.26365 11.9898 3.21949 11.7869 3.12448M12.4496 3.24728C12.2175 3.26459 11.9898 3.22008 11.7869 3.12448M11.7869 3.12448C11.5826 3.02827 11.4035 2.8803 11.2702 2.69167M11.7869 3.12448C11.5823 3.02862 11.4028 2.88105 11.2702 2.69167M2.72144 7.41295L2.72208 7.40961M11.5798 8.62713C11.5798 10.0481 10.4019 11.1999 8.94927 11.1999C7.49659 11.1999 6.31878 10.0481 6.31878 8.62713C6.31878 7.20622 7.49659 6.05437 8.94927 6.05437C10.4019 6.05437 11.5798 7.20622 11.5798 8.62713Z" stroke="white" stroke-width="1.5"/>
</svg>
