<svg width="12" height="12" viewBox="0 0 12 12" fill="none" xmlns="http://www.w3.org/2000/svg">
<path d="M11.4155 4.82759L7.94421 4.3231L6.39245 1.1772C6.35007 1.09107 6.28034 1.02134 6.19421 0.97896C5.9782 0.87232 5.7157 0.961187 5.60769 1.1772L4.05593 4.3231L0.584642 4.82759C0.488939 4.84126 0.401439 4.88638 0.334446 4.95474C0.253457 5.03798 0.208827 5.14998 0.210366 5.26611C0.211904 5.38224 0.259483 5.49301 0.34265 5.57408L2.85417 8.02271L2.26081 11.4803C2.2469 11.5608 2.2558 11.6435 2.28651 11.7191C2.31721 11.7947 2.36849 11.8603 2.43454 11.9082C2.50058 11.9562 2.57875 11.9847 2.66017 11.9905C2.74159 11.9963 2.82301 11.9792 2.89519 11.9411L6.00007 10.3086L9.10495 11.9411C9.18972 11.9862 9.28816 12.0012 9.38249 11.9848C9.62038 11.9438 9.78034 11.7182 9.73933 11.4803L9.14597 8.02271L11.6575 5.57408C11.7259 5.50709 11.771 5.41958 11.7846 5.32388C11.8216 5.08462 11.6548 4.86314 11.4155 4.82759Z" fill="#FFA800"/>
</svg>
