<svg width="22" height="21" viewBox="0 0 22 21" fill="none" xmlns="http://www.w3.org/2000/svg">
<path d="M19.9785 0.34127V1.51585H18.7884V0.34127H16.8256V1.19129H15.7747V2.24223H16.9493V3.41681H15.7747V2.24223H14.5229V4.08138H13.3483V5.25595H12.5601V6.43053H11.6946C10.7209 7.86785 8.30995 12.3498 7.56811 14.1735C4.92531 10.4952 2.86979 9.04243 1.26248 8.51696C0.396996 8.25422 -0.653943 9.19698 0.783371 10.6961C4.10619 14.3589 5.15713 17.3727 6.16171 19.7991C6.70263 21.0664 9.09815 21.2673 9.57726 19.9691C10.5973 17.2336 12.081 14.1426 13.8428 11.6234V10.3097H14.7856V9.13516H15.7747V7.75966H16.9493V6.44599H15.7593V5.2405H16.9493V6.44599H18.1084V5.25595H19.0357V3.81864H20.0866V2.82952H21.0912V0.34127H19.9785Z" fill="white"/>
</svg>
