<svg width="20" height="17" viewBox="0 0 20 17" fill="none" xmlns="http://www.w3.org/2000/svg">
<path d="M0 14.5591C2.15365 14.6816 4.03226 14.1835 5.87265 12.8861C4.01827 12.5776 2.72888 11.7556 2.02778 10.0427C2.56573 9.96646 3.04587 10.1053 3.60526 9.89206C1.77885 9.11361 0.596681 7.94231 0.548201 5.91907C1.12344 5.96806 1.56163 6.33279 2.25247 6.2847C0.569644 4.68425 0.059668 2.94681 1.11691 0.829206C2.87059 2.79257 4.92448 4.11811 7.42588 4.74595C7.562 4.78043 7.69812 4.81672 7.83423 4.84666C8.48219 4.99182 9.24296 5.30211 9.63546 5.25493C10.3105 5.17237 9.63546 4.41933 9.80701 3.43946C10.3422 0.39008 13.7889 -0.993527 16.3416 0.792007C17.0875 1.31369 17.6795 1.30462 18.4076 0.989795C18.7927 0.823762 19.1814 0.664987 19.6364 0.47355C19.531 1.34817 18.8467 1.82177 18.2976 2.4732C18.9241 2.61202 19.4285 2.436 20 2.25908C19.8014 2.88692 19.3241 3.24167 18.884 3.58644C18.4309 3.94119 18.25 4.31136 18.2314 4.89293C17.9498 13.6827 7.68786 20.4828 0.669401 15.0708C-0.0111878 14.5464 0.651688 15.0717 0.000932314 14.5582L0 14.5591Z" fill="#FFA800"/>
</svg>
