<svg width="24" height="24" viewBox="0 0 24 24" fill="none" xmlns="http://www.w3.org/2000/svg">
<path d="M0.943197 7.32886C1.54771 5.89988 2.41275 4.61662 3.51457 3.5148C4.61639 2.41298 5.89965 1.54771 7.32886 0.943428C8.80855 0.317473 10.3802 0 11.9999 0C13.6195 0 15.1912 0.317473 16.6711 0.943197C18.1001 1.54771 19.3834 2.41275 20.4852 3.51457C21.587 4.61639 22.4523 5.89965 23.0566 7.32863C23.6825 8.80878 24 10.3802 24 12.0001C24 13.62 23.6825 15.1914 23.0568 16.6714C22.4523 18.1003 21.5873 19.3836 20.4854 20.4854C19.3836 21.5873 18.1003 22.4525 16.6714 23.0568C15.1914 23.6828 13.62 24 12.0001 24C10.3802 24 8.80878 23.6825 7.32886 23.0568C5.89988 22.4523 4.61662 21.5873 3.51457 20.4854C2.41275 19.3836 1.54748 18.1003 0.943197 16.6714C0.317244 15.1914 0 13.62 0 12.0001C0 10.3802 0.317472 8.80878 0.943197 7.32886ZM15.3773 1.81423C15.8146 2.33505 16.2158 2.95916 16.5752 3.68034C16.7613 4.05337 16.9331 4.44716 17.0905 4.85801C17.1507 4.85155 17.2106 4.84487 17.2694 4.83818C18.54 4.69316 19.2158 4.52324 19.5671 4.39944C18.4017 3.23906 16.972 2.34427 15.3773 1.814V1.81423ZM20.4513 5.39543C20.3141 5.47036 20.1534 5.53976 19.966 5.60477C19.4781 5.774 18.7897 5.91948 17.9198 6.03683C17.7852 6.05504 17.6464 6.07234 17.5041 6.08917C17.9717 7.68944 18.2431 9.488 18.2929 11.3652H22.7114C22.58 9.12211 21.7562 7.06187 20.4513 5.39566V5.39543ZM20.3738 18.7019C21.7235 17.0188 22.5773 14.9219 22.7114 12.6346H18.2931C18.2417 14.5639 17.9567 16.4106 17.4652 18.0439C17.6213 18.0621 17.773 18.081 17.9198 18.1008C18.7897 18.2182 19.4781 18.3636 19.966 18.5329C20.1193 18.5861 20.2546 18.6422 20.3741 18.7016L20.3738 18.7019ZM19.4622 19.7032C19.0871 19.5837 18.4238 19.4313 17.2694 19.2997C17.1938 19.2912 17.1168 19.2826 17.0391 19.2746C16.8957 19.6377 16.7412 19.9867 16.5752 20.3197C16.2156 21.0408 15.8146 21.6647 15.3773 22.1858C16.9245 21.6714 18.3164 20.8137 19.4622 19.7034V19.7032ZM12.6348 22.6395C13.0284 22.5265 13.4166 22.3089 13.7952 21.9877C14.4041 21.4713 14.9572 20.7192 15.4391 19.753C15.5345 19.5616 15.626 19.364 15.7134 19.1611C14.764 19.0966 13.7177 19.0574 12.6348 19.0463V22.6395ZM12.6348 17.7764C13.8987 17.7889 15.1025 17.8384 16.1748 17.9212C16.6774 16.3493 16.9697 14.5399 17.023 12.6348H12.6348V17.7764ZM12.6348 11.3652H17.023C16.9713 9.51428 16.6937 7.75377 16.217 6.21367C15.134 6.29828 13.9153 6.349 12.6348 6.36168V11.3652ZM12.6348 5.09179C13.739 5.08049 14.8055 5.03991 15.7697 4.97305C15.6652 4.72267 15.5553 4.48013 15.4388 4.24681C14.957 3.28032 14.4039 2.52849 13.795 2.01205C13.4166 1.69111 13.0282 1.47324 12.6346 1.36027V5.09156L12.6348 5.09179ZM4.43263 4.39967C4.784 4.52347 5.45975 4.69316 6.73034 4.83841C6.78913 4.8451 6.84907 4.85178 6.90925 4.85824C7.06695 4.44739 7.23848 4.0536 7.42454 3.68057C7.78397 2.95939 8.18514 2.33551 8.6225 1.81446C7.02775 2.34451 5.59785 3.23952 4.43263 4.3999V4.39967ZM11.3652 1.3605C10.9716 1.47324 10.5834 1.69112 10.2048 2.01228C9.5959 2.52872 9.0428 3.28079 8.56094 4.24704C8.44451 4.48036 8.33453 4.7229 8.23009 4.97328C9.19427 5.04015 10.2608 5.08072 11.3649 5.09202V1.3605H11.3652ZM11.3652 6.36168C10.0844 6.349 8.86596 6.29828 7.78305 6.21367C7.30649 7.75377 7.02891 9.51428 6.97703 11.3652H11.3652V6.36168ZM11.3652 12.6348H6.97703C7.03029 14.5399 7.32263 16.3493 7.82524 17.9212C8.89755 17.8384 10.101 17.7889 11.3652 17.7764V12.6348ZM10.2048 21.988C10.5834 22.3089 10.9716 22.5268 11.3652 22.6397V19.0465C10.2825 19.0576 9.236 19.0968 8.28658 19.1614C8.37396 19.3645 8.46549 19.5618 8.56094 19.7532C9.0428 20.7197 9.5959 21.4715 10.2048 21.988ZM8.6225 22.1858C8.18514 21.6649 7.78397 21.0408 7.42454 20.3197C7.25854 19.9867 7.10407 19.6377 6.96066 19.2746C6.88273 19.2829 6.80596 19.2912 6.73034 19.2997C5.57618 19.4316 4.91265 19.5837 4.53754 19.7032C5.68339 20.8135 7.07525 21.6712 8.6225 22.1855V22.1858ZM3.62569 18.7021C3.74512 18.6424 3.88046 18.5864 4.03378 18.5333C4.52163 18.3641 5.21006 18.2186 6.07994 18.1013C6.22681 18.0814 6.37851 18.0625 6.5346 18.0443C6.04283 16.4111 5.75809 14.5643 5.70668 12.6351H1.28834C1.42252 14.9222 2.27603 17.0193 3.62593 18.7023L3.62569 18.7021ZM5.70668 11.3652C5.75671 9.488 6.02807 7.68944 6.4954 6.08917C6.35315 6.07234 6.21436 6.05504 6.07994 6.03683C5.21006 5.91948 4.52163 5.774 4.03378 5.60477C3.84634 5.53976 3.68564 5.47059 3.54846 5.39543C2.24352 7.06164 1.41998 9.12188 1.28834 11.3649H5.70668V11.3652Z" fill="#FFA800"/>
</svg>
