<svg width="24" height="24" viewBox="0 0 24 24" fill="none" xmlns="http://www.w3.org/2000/svg">
<g clip-path="url(#clip0_1_7460)">
<path d="M1.84999 24L2.82883 18.6406C1.00232 16.5987 0 14.0164 0 11.3328C0 9.79761 0.319099 8.30868 0.949468 6.90635C1.55634 5.55618 2.42457 4.34378 3.53065 3.30359C4.63282 2.26636 5.91607 1.45252 7.3432 0.884697C8.81928 0.298179 10.3854 0 12.0005 0C13.6156 0 15.1817 0.298179 16.6578 0.884697C18.0859 1.45252 19.3682 2.26636 20.4703 3.30359C21.5754 4.34378 22.4437 5.55519 23.0515 6.90635C23.6819 8.30769 24.001 9.79761 24.001 11.3328C24.001 12.868 23.6819 14.3569 23.0515 15.7592C22.4446 17.1094 21.5764 18.3218 20.4703 19.362C19.3682 20.3992 18.0849 21.2131 16.6578 21.7809C15.1817 22.3684 13.6156 22.6656 12.0005 22.6656C10.2768 22.6656 8.61666 22.329 7.0613 21.6638L1.84999 24ZM12.0005 1.33147C6.11379 1.33147 1.32436 5.81794 1.32436 11.3328C1.32436 13.7842 2.28166 16.143 4.01909 17.9744L4.25205 18.2204L3.60602 21.7553L7.06032 20.2063L7.33146 20.3303C8.79188 20.9966 10.3619 21.3351 11.9985 21.3351C17.8852 21.3351 22.6737 16.8486 22.6737 11.3338C22.6737 5.81893 17.8862 1.33147 12.0005 1.33147Z" fill="#FFA800"/>
<path d="M17.9742 14.1297C17.6365 13.8925 17.2254 13.7833 16.8603 13.5904C16.3484 13.3385 15.9784 13.1771 15.7102 13.0747C15.5399 13.0117 15.1513 12.8376 15.0123 12.9488C14.5806 13.306 14.1225 14.3039 13.6351 14.4928C12.4223 14.2527 11.2996 13.4152 10.4196 12.562C10.0251 12.1831 9.30862 11.1282 9.14809 10.8399C9.12264 10.5446 9.64632 10.152 9.76182 9.92859C10.3707 9.23775 9.90864 8.81164 9.82936 8.52035C9.69428 8.22316 9.45544 7.69765 9.25185 7.25776C9.07859 6.97041 9.03944 6.55217 8.71936 6.39078C7.38326 5.69897 6.6227 7.07964 6.30752 7.8C4.42033 12.3711 15.7758 21.0842 18.0848 15.0862C18.2013 14.5617 18.1563 14.3698 17.9732 14.1287L17.9742 14.1297Z" fill="#FFA800"/>
</g>
<defs>
<clipPath id="clip0_1_7460">
<rect width="24" height="24" fill="white"/>
</clipPath>
</defs>
</svg>
